<?xml version="1.0" standalone="no"?>
<!DOCTYPE svg PUBLIC "-//W3C//DTD SVG 20010904//EN"
 "http://www.w3.org/TR/2001/REC-SVG-20010904/DTD/svg10.dtd">
<svg version="1.0" xmlns="http://www.w3.org/2000/svg"
 width="1024.000000pt" height="1024.000000pt" viewBox="0 0 1024.000000 1024.000000"
 preserveAspectRatio="xMidYMid meet">

<g transform="translate(0.000000,1024.000000) scale(0.100000,-0.100000)"
fill="#000000" stroke="none">
<path d="M0 5120 l0 -5120 5120 0 5120 0 0 5120 0 5120 -5120 0 -5120 0 0
-5120z m4557 2648 c45 -62 120 -158 167 -212 267 -308 410 -577 500 -941 61
-248 87 -499 67 -655 -7 -52 -15 -128 -18 -167 -5 -67 -4 -73 13 -73 54 0 113
88 158 237 58 187 61 210 61 456 0 125 3 227 6 227 10 0 95 -149 137 -240 77
-168 116 -291 152 -475 54 -280 24 -605 -74 -810 -77 -158 -229 -325 -372
-406 -114 -66 -335 -152 -334 -131 1 4 27 30 59 57 99 85 175 215 216 368 45
164 64 404 34 423 -10 6 -14 1 -112 -131 -87 -117 -137 -173 -156 -177 -11 -2
-13 19 -12 112 2 132 -19 307 -48 397 -11 35 -41 116 -67 180 -44 111 -59 145
-144 330 -18 40 -36 70 -40 68 -4 -3 -10 -22 -13 -42 -21 -127 -118 -431 -143
-446 -7 -4 -11 -15 -8 -25 5 -15 4 -15 -6 -2 -9 11 -13 12 -17 3 -3 -9 -30
-13 -84 -13 -72 0 -79 -2 -79 -20 0 -13 -7 -20 -20 -20 -13 0 -20 -7 -20 -20
0 -13 -7 -20 -20 -20 -16 0 -20 -7 -20 -35 0 -29 -5 -37 -26 -45 -39 -15 -94
-2 -94 21 0 17 -8 19 -60 19 l-60 0 0 60 c0 53 -2 60 -20 60 -13 0 -20 7 -20
20 0 22 -36 29 -43 8 -2 -7 -2 -3 0 10 2 12 -1 22 -6 22 -5 0 -13 -32 -18 -72
-5 -49 -13 -73 -23 -76 -12 -4 -13 -2 -4 9 8 10 7 60 -2 179 -16 203 -8 410
16 410 6 0 10 -7 10 -15 0 -18 46 -21 53 -2 4 9 8 9 16 -3 5 -8 7 -18 4 -22
-2 -5 0 -15 7 -22 6 -8 13 -22 15 -32 11 -49 68 -191 82 -206 9 -10 23 -18 31
-18 11 0 13 -8 8 -35 -6 -28 -4 -35 9 -35 8 0 15 -4 15 -10 0 -5 7 -10 15 -10
16 0 24 24 28 90 1 25 6 50 10 57 11 17 -13 28 -25 12 -7 -10 -8 -8 -3 8 3 12
1 24 -5 28 -5 3 -10 11 -10 16 0 6 5 7 10 4 7 -4 9 2 5 17 -4 13 -7 32 -9 41
-1 9 -6 20 -10 24 -5 4 -6 -7 -4 -25 3 -22 1 -29 -5 -23 -17 17 38 242 122
496 45 137 99 348 131 516 28 141 30 166 30 382 0 153 -5 264 -15 327 -17 109
-18 130 -7 130 4 0 44 -51 89 -112z m-2029 -15 c44 -47 92 -118 92 -137 0 -3
-9 -10 -20 -16 -29 -15 -74 14 -139 89 -56 64 -59 75 -34 103 26 29 44 22 101
-39z m3832 -93 c24 -24 24 -29 4 -58 -18 -26 -41 -28 -66 -5 -22 20 -23 46 -2
67 21 21 40 20 64 -4z m-3642 -120 c26 -16 32 -26 32 -53 0 -96 -122 -78 -147
21 -12 50 55 68 115 32z m3487 -195 c14 -13 25 -30 25 -36 0 -7 -44 -100 -97
-207 -77 -156 -98 -191 -104 -174 -4 11 -15 24 -23 29 -14 7 -12 19 14 88 17
44 44 125 61 180 17 55 37 110 45 123 19 29 49 28 79 -3z m-2406 -51 c29 -37
27 -78 -5 -103 -15 -12 -32 -21 -39 -21 -21 0 -65 59 -65 87 0 61 71 85 109
37z m-821 -53 c13 -17 41 -66 147 -261 38 -69 123 -217 190 -330 67 -113 132
-226 144 -250 l21 -45 -42 49 c-41 47 -75 84 -270 291 -47 50 -121 131 -166
180 -44 50 -106 114 -137 144 -31 30 -61 65 -66 79 -13 34 4 81 44 120 54 52
105 61 135 23z m4432 -111 c28 -28 25 -58 -15 -112 -56 -76 -78 -79 -119 -16
-13 20 -15 32 -7 45 13 25 97 103 111 103 5 0 19 -9 30 -20z m-427 -381 c64
-17 126 -136 111 -214 -6 -32 -18 -42 -118 -105 -61 -39 -122 -78 -136 -88
l-25 -16 18 21 c15 17 16 26 8 40 -6 10 -11 12 -11 6 0 -7 -6 -13 -13 -13 -8
0 -24 -11 -36 -24 -34 -36 -60 -40 -72 -9 -6 15 -15 23 -27 21 -20 -4 -30 -48
-10 -48 27 0 -42 -28 -81 -33 -50 -5 -51 -8 66 137 48 60 101 127 116 148 39
56 126 161 145 176 19 15 18 15 65 1z m-4941 -95 c40 -28 45 -42 28 -75 -15
-27 -31 -24 -84 16 -47 37 -55 52 -34 73 19 19 49 14 90 -14z m390 -225 c25
-14 245 -174 403 -294 438 -334 445 -339 445 -350 0 -17 -132 55 -345 188 -44
28 -188 115 -320 195 -132 79 -248 151 -257 160 -24 21 -22 61 4 89 24 26 39
28 70 12z m1540 -41 c-9 -24 -19 -45 -23 -48 -4 -3 -14 -21 -22 -40 -9 -19
-16 -29 -16 -22 -1 13 66 152 73 152 3 0 -3 -19 -12 -42z m2837 -674 c12 -15
21 -33 21 -40 0 -23 -44 -64 -77 -70 -63 -12 -108 71 -63 116 31 31 93 27 119
-6z m-2229 -54 c0 -5 -5 -10 -11 -10 -5 0 -7 5 -4 10 3 6 8 10 11 10 2 0 4 -4
4 -10z m-17 -40 c-3 -12 -8 -19 -11 -16 -5 6 5 36 12 36 2 0 2 -9 -1 -20z
m-13 -40 c0 -5 -5 -10 -11 -10 -5 0 -7 5 -4 10 3 6 8 10 11 10 2 0 4 -4 4 -10z
m-525 -140 c8 0 15 -9 15 -20 0 -13 7 -20 18 -20 17 0 20 -13 25 -129 4 -91
13 -149 28 -196 22 -67 22 -79 2 -67 -12 8 -98 177 -119 236 -23 64 -38 223
-22 240 11 12 15 10 26 -15 6 -16 19 -29 27 -29z m3515 40 c27 -27 25 -44 -6
-69 -49 -39 -114 -16 -114 41 0 46 82 66 120 28z m-5075 -87 c-11 -3 -23 -10
-27 -17 -5 -7 -8 -7 -8 0 0 16 11 24 34 23 20 -1 20 -1 1 -6z m198 -68 c26
-10 45 -20 43 -23 -3 -2 -29 5 -58 16 -29 11 -68 26 -86 33 -18 6 -37 20 -42
29 -8 14 1 12 43 -10 28 -15 73 -35 100 -45z m4516 49 c14 -18 21 -41 21 -71
0 -81 7 -77 -275 -153 -66 -17 -130 -36 -143 -41 -13 -5 -32 -9 -42 -9 -11 0
-20 -4 -20 -8 0 -12 -71 -32 -106 -31 -17 1 -22 3 -11 6 9 2 17 11 17 20 0 10
-6 14 -18 11 -11 -3 -23 2 -30 12 -7 12 -19 16 -38 12 -60 -11 -7 18 158 88
95 40 234 99 308 131 74 32 140 58 147 59 6 0 21 -12 32 -26z m-2801 -92 c9
-10 22 -27 28 -38 6 -10 21 -19 32 -19 25 0 27 -3 36 -40 7 -29 5 -27 -49 25
-53 51 -83 90 -70 90 3 0 13 -8 23 -18z m2125 -259 c-7 -2 -19 -2 -25 0 -7 3
-2 5 12 5 14 0 19 -2 13 -5z m-140 -40 c-7 -2 -19 -2 -25 0 -7 3 -2 5 12 5 14
0 19 -2 13 -5z m-648 -518 c55 -7 165 -21 245 -30 80 -9 174 -20 210 -25 36
-5 135 -16 220 -25 85 -8 252 -31 370 -50 118 -19 235 -37 260 -40 25 -3 149
-21 275 -40 127 -19 318 -46 425 -61 771 -102 822 -110 818 -133 -3 -13 -21
-17 -88 -23 -47 -4 -674 -9 -1395 -12 -860 -3 -1367 -9 -1475 -17 -203 -14
-710 -5 -722 14 -19 29 -6 32 172 47 153 12 306 43 340 68 14 11 34 43 45 76
12 31 27 64 36 74 31 37 111 157 120 180 7 17 14 22 27 17 9 -3 62 -12 117
-20z m-1962 -62 c18 -38 63 -113 98 -168 36 -55 96 -154 134 -220 143 -251
164 -279 330 -425 94 -83 169 -135 300 -210 168 -97 298 -198 408 -317 26 -28
27 -31 13 -64 -13 -32 -47 -228 -62 -352 l-6 -58 -59 -29 c-86 -44 -250 -144
-369 -224 -58 -39 -123 -82 -145 -95 -47 -27 -315 -218 -365 -259 l-33 -28
-116 26 c-64 15 -172 40 -241 55 -69 15 -177 42 -240 61 -260 77 -574 164
-591 164 -10 0 -48 26 -83 59 -62 55 -279 199 -411 271 -93 51 -95 54 -95 127
0 69 10 78 42 37 11 -14 64 -54 117 -89 103 -68 221 -149 340 -233 l74 -52 35
58 c19 31 57 95 85 141 35 58 52 79 58 70 4 -7 5 -16 1 -19 -20 -15 -42 -87
-42 -135 0 -57 15 -141 29 -163 10 -16 520 -164 647 -188 49 -9 149 -29 222
-45 73 -16 143 -29 156 -29 16 0 52 28 115 91 92 92 134 147 299 394 59 89 91
129 87 110 -17 -76 -29 -114 -51 -167 -13 -32 -24 -71 -24 -88 l0 -31 73 50
c108 75 360 236 378 243 11 4 18 25 23 70 4 34 21 112 37 172 38 140 31 174
-51 231 -77 54 -159 75 -285 75 -78 0 -115 4 -115 11 0 6 7 8 18 4 13 -5 14
-3 5 6 -13 13 -33 4 -33 -17 0 -8 -8 -14 -19 -14 -10 0 -34 -3 -52 -7 l-34 -6
25 21 c14 11 30 17 35 12 6 -4 17 0 25 9 8 9 13 15 11 13 -3 -1 -15 5 -29 14
-13 8 -26 13 -30 10 -3 -3 0 -6 6 -6 6 0 9 -7 5 -16 -5 -14 -8 -12 -19 7 -16
28 -18 42 -5 35 5 -4 12 0 14 6 4 10 8 9 16 -2 9 -13 11 -13 11 3 0 9 -5 17
-11 17 -5 0 -8 4 -5 9 11 17 -5 40 -22 33 -15 -5 -15 -4 -3 11 9 11 10 17 2
17 -6 0 -11 -2 -11 -4 0 -2 -3 -11 -6 -20 -4 -10 -1 -16 9 -16 9 0 19 -5 23
-11 9 -15 -38 0 -49 15 -4 6 -6 0 -4 -13 2 -14 10 -27 18 -29 11 -3 11 -1 -1
7 -18 13 -1 15 18 2 10 -6 6 -11 -17 -19 -20 -7 -31 -7 -31 -1 0 6 -5 7 -11 4
-14 -9 -4 -17 23 -19 14 -1 24 -8 26 -20 3 -13 0 -16 -10 -10 -21 13 -37 13
-32 0 3 -8 -3 -12 -18 -11 -22 2 -38 -10 -38 -29 0 -5 6 -3 14 3 7 6 24 12 38
13 18 2 24 7 21 18 -3 11 -1 10 10 -3 11 -13 16 -14 19 -6 3 10 6 10 12 0 5
-8 1 -14 -13 -18 -12 -3 -21 -13 -22 -22 0 -12 -2 -11 -9 4 -7 17 -9 17 -9 3
-1 -10 -9 -18 -18 -18 -15 0 -16 2 -3 10 12 8 11 10 -7 10 -17 0 -21 -4 -16
-17 7 -17 6 -17 -11 0 -22 22 -33 22 -15 0 13 -15 12 -15 -9 -4 -17 9 -21 18
-16 35 3 15 1 25 -8 29 -10 3 -14 -2 -14 -17 1 -15 -4 -20 -16 -18 -10 2 -18
-2 -18 -8 0 -6 5 -8 11 -4 8 4 9 -1 5 -17 -3 -13 -3 -18 0 -11 3 6 10 10 15 7
5 -4 6 2 2 12 -6 16 -5 16 10 4 27 -21 21 -27 -40 -41 -89 -20 -97 -20 -116 6
-18 24 -11 33 11 14 9 -7 9 -7 2 2 -5 7 -10 21 -10 31 0 16 5 18 27 12 24 -6
25 -5 12 11 -9 11 -9 15 -1 10 6 -4 12 -3 12 3 0 18 -20 23 -26 7 -11 -29 -26
-17 -20 17 3 17 3 26 0 19 -3 -6 -11 -9 -17 -5 -6 4 -8 0 -4 -9 4 -12 -3 -18
-29 -22 -19 -4 -34 -9 -34 -11 0 -2 -3 -10 -6 -19 -3 -9 -1 -16 5 -16 6 0 10
5 8 11 -1 6 3 13 10 16 7 3 9 -3 6 -16 -8 -31 -62 -25 -64 8 0 12 -2 12 -9 -4
-13 -30 -12 -34 10 -28 15 4 20 0 20 -13 0 -16 -2 -17 -10 -4 -8 12 -10 12
-10 1 0 -11 -5 -10 -20 4 -11 10 -20 13 -20 7 0 -6 4 -13 9 -17 5 -3 7 -21 5
-41 -4 -30 -2 -33 10 -22 8 7 12 16 9 21 -2 4 5 7 16 7 16 0 21 6 21 26 0 19
4 25 14 21 8 -3 16 -1 18 5 2 6 17 0 33 -14 15 -14 25 -29 22 -35 -8 -13 -57
-23 -57 -12 0 5 6 9 13 9 8 0 7 3 -3 10 -8 5 -12 12 -8 15 3 3 13 -1 21 -10
22 -22 33 -19 13 4 -10 11 -26 19 -37 18 -15 -1 -18 -7 -14 -29 5 -28 -2 -36
-37 -42 -7 -1 -19 -5 -25 -9 -16 -10 -35 1 -27 15 4 7 2 8 -4 4 -7 -4 -12 -1
-12 8 0 8 -8 17 -17 19 -14 4 -13 5 4 6 12 0 24 -5 26 -11 3 -8 6 -6 6 5 1 9
-5 17 -11 18 -9 0 -9 2 -2 5 7 3 10 14 7 24 -4 14 0 20 11 20 9 0 16 8 15 18
0 10 -3 12 -6 5 -2 -7 -9 -13 -14 -13 -6 0 -7 6 -2 13 16 26 5 57 -22 57 -5 0
-3 -5 5 -10 10 -6 11 -10 3 -10 -7 0 -13 -8 -13 -17 0 -15 2 -16 10 -3 6 10
10 11 10 3 0 -19 -57 -46 -63 -30 -3 6 -3 -4 -1 -23 3 -19 6 -44 7 -55 2 -12
9 -19 20 -19 9 1 15 -2 12 -6 -3 -5 1 -10 7 -13 8 -2 9 -8 4 -13 -5 -5 -11 -4
-13 4 -3 6 -11 12 -19 12 -8 0 -17 13 -21 31 -4 22 -8 27 -15 17 -6 -9 -7 -6
-3 9 4 13 1 23 -7 26 -7 2 -5 3 5 2 22 -4 22 11 0 23 -14 9 -14 10 4 16 12 4
26 5 33 4 15 -4 31 35 20 52 -4 7 -13 9 -20 5 -9 -6 -9 -9 1 -16 10 -6 7 -8
-9 -6 -21 1 -32 17 -12 17 5 0 8 6 6 13 -1 6 -1 9 1 5 3 -4 15 -2 28 4 28 12
60 4 49 -13 -4 -8 -3 -9 4 -5 7 4 12 1 12 -10 0 -13 3 -14 14 -5 17 14 29 -11
21 -43 -5 -17 -4 -18 4 -6 6 8 8 27 5 43 -3 17 -1 27 6 27 6 0 8 -5 4 -12 -4
-6 -3 -8 4 -4 6 3 13 2 17 -4 3 -5 1 -10 -6 -10 -7 0 -10 -2 -7 -5 3 -3 16 -1
29 4 18 7 20 10 6 10 -10 1 -15 6 -12 11 3 6 -1 10 -10 10 -9 0 -13 5 -10 10
4 6 10 8 14 6 4 -3 13 0 21 6 12 8 12 9 -2 4 -10 -3 -18 -1 -18 4 0 6 5 10 11
10 5 0 7 5 4 10 -3 6 -3 10 2 11 4 0 19 2 32 5 20 4 22 2 11 -11 -7 -8 -16
-12 -21 -9 -5 3 -6 -2 -2 -11 3 -10 0 -21 -8 -27 -11 -7 -9 -8 6 -6 13 3 19
11 18 23 -1 11 0 15 3 8 3 -7 13 -9 22 -6 14 4 15 3 2 -6 -8 -5 -11 -13 -7
-17 12 -12 28 11 22 29 -4 9 -14 14 -23 10 -13 -4 -14 -3 -3 5 17 12 4 35 -15
28 -7 -3 -16 -1 -19 3 -2 5 4 11 15 14 15 4 24 -2 35 -22 16 -31 49 -39 39 -9
-4 13 -1 16 9 12 9 -3 16 3 20 15 4 17 2 18 -14 8 -16 -10 -22 -9 -30 3 -9 13
-10 12 -5 -2 7 -22 -10 -24 -18 -2 -4 10 4 21 24 32 16 9 30 22 30 29 0 6 9
15 20 18 11 3 20 11 20 18 0 8 -3 8 -12 -1 -8 -8 -15 -8 -24 -1 -7 6 -21 9
-31 6 -14 -4 -13 -5 5 -6 12 0 22 -5 22 -10 0 -4 -10 -7 -22 -6 -13 1 -15 0
-5 -2 24 -6 21 -22 -8 -35 -14 -6 -25 -15 -25 -19 0 -4 -14 -12 -31 -18 l-31
-11 6 33 c4 17 11 34 17 36 8 2 7 6 -1 11 -7 4 -9 13 -5 20 5 8 10 9 14 1 4
-6 11 -3 19 9 11 18 9 18 -19 8 -23 -8 -29 -15 -26 -29 4 -13 0 -19 -11 -20
-11 0 -12 -2 -4 -6 6 -2 12 -9 12 -14 0 -4 -6 -7 -12 -5 -7 1 -10 1 -5 -1 4
-3 7 -14 7 -26 0 -18 -2 -19 -10 -7 -8 13 -10 12 -10 -2 0 -10 -8 -18 -17 -18
-15 0 -16 -2 -3 -10 13 -8 13 -10 1 -10 -11 0 -10 -4 4 -13 18 -14 13 -43 -6
-32 -5 4 -9 1 -9 -4 0 -13 -36 -15 -44 -3 -2 4 -1 14 5 22 7 12 9 11 9 -5 0
-16 2 -17 10 -5 5 8 6 17 2 20 -4 3 -7 14 -7 24 0 11 -6 20 -13 22 -7 1 -8 0
-2 -3 18 -9 11 -33 -10 -33 -11 0 -20 -4 -20 -9 0 -14 -44 -21 -52 -8 -12 19
-9 24 17 29 31 6 32 0 3 -12 l-23 -9 23 0 c24 -1 41 29 47 84 2 17 1 24 -2 18
-2 -7 -14 -13 -26 -14 -16 0 -18 -2 -7 -7 24 -11 23 -39 -2 -45 -12 -4 -24 -4
-27 -2 -2 3 0 5 6 5 6 0 9 8 6 18 -2 10 8 49 22 87 15 39 35 98 46 132 22 68
37 87 46 54 3 -11 9 -18 14 -15 5 3 9 0 9 -6 0 -6 5 -8 10 -5 6 3 10 1 10 -5
0 -6 4 -9 9 -6 5 4 12 0 14 -6 3 -8 6 -6 6 5 1 10 -9 22 -21 27 -39 16 -56 35
-73 78 l-17 42 -42 -38 c-22 -21 -62 -52 -88 -70 -75 -51 -265 -141 -369 -173
-53 -16 -105 -39 -114 -49 -10 -11 -15 -20 -11 -20 20 0 -33 -60 -87 -100 -50
-35 -176 -92 -232 -103 -5 -1 -16 -8 -23 -14 -16 -15 -32 -17 -32 -4 0 5 -9 7
-19 4 -12 -3 -17 -11 -14 -19 3 -8 3 -14 0 -14 -2 0 -22 -7 -43 -15 -38 -15
-38 -15 -18 3 17 15 19 20 7 30 -7 7 -13 18 -13 25 0 7 7 3 15 -7 12 -16 15
-17 15 -4 0 17 -27 44 -36 36 -3 -3 -6 -15 -7 -26 -1 -15 -5 -18 -13 -12 -6 6
-15 6 -19 2 -5 -4 -5 -1 -1 6 4 7 12 10 17 7 5 -4 9 1 9 9 0 9 -6 13 -14 10
-8 -3 -17 0 -21 5 -3 6 -11 9 -16 6 -5 -4 -9 1 -9 10 0 9 5 13 11 9 6 -3 16 0
21 7 7 10 7 7 3 -8 -9 -31 9 -29 24 3 6 14 17 24 24 21 6 -2 18 5 25 17 9 14
12 15 8 4 -6 -19 9 -34 17 -18 3 6 4 5 3 -2 -2 -7 -10 -12 -18 -10 -8 1 -15
-5 -15 -13 0 -18 2 -18 28 -5 10 6 19 17 19 24 0 15 27 29 34 18 6 -10 -25
-82 -35 -82 -14 0 -11 18 4 23 6 2 9 8 5 12 -11 12 -33 -8 -34 -31 0 -16 4
-20 19 -16 10 3 21 11 24 19 5 12 7 12 14 1 7 -11 9 -11 9 0 0 10 9 12 33 8
17 -3 24 -3 15 2 -12 5 -15 11 -8 22 6 9 10 10 10 3 0 -7 7 -10 17 -6 11 4 14
3 9 -5 -5 -8 -1 -10 10 -5 13 5 14 8 4 11 -9 3 -5 9 11 19 19 11 20 13 4 8
-15 -3 -21 0 -21 13 -1 9 -4 26 -8 37 -8 20 -7 20 8 1 12 -14 16 -16 16 -5 0
30 -15 40 -43 30 -15 -6 -27 -13 -27 -15 0 -3 7 -3 15 0 10 4 15 0 15 -14 0
-29 -31 -80 -52 -86 -20 -5 -20 -4 -12 18 3 9 11 16 18 16 15 0 38 38 27 45
-5 3 -11 -1 -14 -7 -3 -10 -9 -10 -24 -1 -12 7 -25 8 -34 2 -18 -11 -32 -11
-24 0 3 5 -4 12 -15 16 -11 3 -20 10 -20 15 0 12 30 5 40 -9 6 -10 12 -10 29
-2 11 7 21 16 21 21 0 5 6 7 14 4 9 -4 17 7 23 33 6 25 17 42 33 50 14 7 19
13 13 13 -7 0 -13 5 -13 10 0 6 7 10 15 10 9 0 21 11 27 25 6 14 18 25 25 25
12 0 11 3 -2 16 -9 9 -14 23 -11 30 3 8 1 14 -5 14 -6 0 -8 -11 -4 -28 4 -21
0 -35 -15 -53 -13 -16 -18 -18 -14 -6 11 31 -5 18 -20 -17 -11 -28 -19 -33
-35 -29 -23 6 -27 18 -11 28 6 3 10 1 10 -5 0 -6 5 -8 10 -5 6 3 10 11 10 16
0 6 -4 8 -9 5 -4 -3 -16 3 -26 14 -16 18 -16 20 -2 20 10 0 17 8 17 18 0 14
-2 15 -10 2 -6 -10 -10 -11 -10 -2 0 6 -5 12 -11 12 -5 0 -7 -4 -4 -10 3 -5 1
-19 -6 -32 -11 -21 -12 -21 -24 8 -10 22 -14 24 -14 9 -1 -15 -3 -17 -13 -6
-11 10 -9 15 7 28 18 14 18 15 2 9 -10 -3 -23 -6 -27 -6 -5 0 -4 -13 1 -29 7
-18 16 -28 24 -25 7 3 16 1 20 -5 3 -6 -2 -11 -12 -11 -15 0 -16 -2 -3 -10 11
-7 12 -12 4 -20 -8 -8 -15 -3 -24 19 -7 17 -16 31 -21 31 -5 0 -6 7 -3 15 8
20 -2 19 -23 -3 -10 -9 -18 -26 -17 -37 0 -11 -6 -33 -13 -48 -8 -15 -11 -33
-7 -39 8 -12 25 21 29 54 1 10 5 21 10 25 4 5 4 -2 1 -14 -7 -22 9 -34 16 -12
2 5 11 7 21 4 9 -4 14 -11 11 -16 -3 -6 0 -16 6 -24 9 -11 9 -15 1 -15 -6 0
-11 4 -11 10 0 12 -27 2 -62 -22 -24 -16 -26 -23 -17 -40 13 -24 8 -31 -9 -12
-7 8 -10 14 -7 14 3 0 1 9 -5 20 -6 11 -15 18 -20 15 -14 -8 -23 16 -11 28 6
6 11 18 11 27 0 10 -6 8 -20 -10 -16 -20 -20 -21 -20 -8 0 10 -6 16 -12 14 -7
-1 -10 -1 -5 1 4 3 7 14 7 26 0 19 -1 19 -12 4 -9 -11 -18 -14 -27 -8 -11 7
-9 10 7 15 19 6 36 38 33 64 -1 6 3 12 9 12 6 0 10 -8 8 -17 -1 -10 1 -24 6
-31 5 -8 4 -18 -3 -25 -6 -6 -11 -17 -11 -25 0 -12 3 -12 15 -2 8 6 18 9 23 6
14 -8 23 36 11 50 -7 8 -7 14 1 19 17 10 24 -25 12 -59 -8 -20 -8 -34 -2 -40
6 -6 10 -6 11 -1 0 6 3 21 5 35 2 14 5 32 6 40 1 8 10 23 20 34 10 11 18 23
18 28 0 4 9 8 19 8 11 0 23 5 26 11 11 16 -24 48 -46 42 -24 -7 -25 5 -1 23
21 17 36 18 26 2 -5 -8 -2 -9 10 -5 12 5 16 2 14 -10 -2 -9 3 -17 10 -19 7 -1
8 0 2 3 -6 3 -2 16 10 33 23 32 26 50 8 50 -6 0 -8 -3 -5 -6 3 -4 2 -15 -4
-25 -9 -17 -13 -18 -37 -5 -15 7 -33 11 -39 9 -7 -3 -13 0 -13 7 0 6 8 10 18
8 9 -1 23 2 31 6 11 7 13 5 8 -7 -3 -10 -2 -17 3 -17 6 0 10 2 10 4 0 2 3 11
6 20 3 9 1 16 -5 16 -9 0 -208 86 -385 168 -33 15 -66 25 -75 24 -9 -2 -13 -1
-9 3 9 9 -20 39 -41 42 -9 2 -25 4 -36 6 -11 2 -27 7 -34 12 -9 5 -12 4 -8 -2
4 -6 0 -14 -9 -17 -10 -4 -13 -2 -8 6 5 8 2 9 -9 5 -10 -4 -24 -10 -32 -13 -8
-3 -15 -1 -15 6 0 6 4 9 8 6 5 -3 24 5 44 17 29 18 34 26 27 42 -4 11 -8 14
-8 7 -2 -36 -91 -76 -91 -41 0 4 6 9 13 12 6 2 4 3 -6 1 -18 -3 -18 -2 0 18
18 21 18 21 -4 9 -13 -6 -23 -17 -24 -24 0 -9 -2 -9 -6 1 -2 6 -11 12 -19 12
-8 0 -11 6 -7 16 5 13 7 13 14 2 5 -7 9 -8 9 -3 0 6 -5 17 -10 25 -9 13 -10
13 -10 0 -1 -13 -2 -13 -13 1 -18 23 -42 20 -42 -6 0 -12 5 -22 10 -22 15 0
65 -34 65 -44 0 -13 -14 -11 -29 4 -11 10 -13 9 -8 -5 4 -12 -2 -18 -21 -23
-51 -13 -62 -14 -62 -4 0 5 11 9 24 9 19 0 23 5 23 28 0 15 -2 21 -4 15 -8
-21 -26 -14 -20 7 3 11 2 18 -3 15 -9 -6 -23 25 -15 33 3 3 5 1 5 -5 0 -5 7
-10 16 -10 14 0 14 2 -2 14 -27 20 -34 16 -35 -19 -1 -24 -3 -27 -6 -10 -5 25
-15 28 -32 9 -8 -11 -5 -21 14 -43 17 -19 23 -23 19 -10 -6 14 -4 17 6 11 8
-5 11 -4 6 3 -3 6 -3 13 2 15 4 3 13 -6 19 -20 10 -20 9 -24 -2 -19 -16 6 -27
-17 -19 -39 12 -30 -6 -14 -25 23 -11 20 -20 31 -21 24 0 -7 -5 -10 -12 -6 -7
4 -8 3 -4 -4 4 -7 3 -12 -3 -12 -5 0 -11 9 -13 20 -3 20 -3 20 -46 -1 -35 -18
-41 -25 -36 -42 6 -19 5 -20 -10 -5 -8 9 -21 18 -28 21 -8 2 28 47 88 108 56
57 119 125 140 150 123 148 187 219 197 219 155 -1 981 13 1112 18 99 5 212 9
252 10 l72 2 34 -67z m1192 -32 c64 -32 180 -142 172 -164 -2 -6 -28 -16 -58
-23 -52 -12 -55 -12 -99 16 -71 45 -115 60 -179 60 -71 0 -99 -10 -150 -51
-63 -50 -111 -129 -118 -191 -12 -115 51 -228 145 -265 54 -21 158 -23 215 -4
33 11 82 57 117 109 15 22 15 22 67 5 35 -12 53 -24 53 -34 0 -22 -77 -126
-123 -166 -57 -50 -183 -79 -272 -62 -73 14 -149 57 -213 123 -99 99 -137 197
-131 333 11 220 185 361 432 349 63 -3 91 -10 142 -35z m-2795 -333 c0 -6 -7
-5 -15 2 -8 7 -15 17 -15 22 0 6 7 5 15 -2 8 -7 15 -17 15 -22z m-117 -8 c3
-11 1 -18 -4 -14 -5 3 -9 12 -9 20 0 20 7 17 13 -6z m2749 -14 c12 -18 9 -49
-8 -71 -17 -23 -40 -13 -64 28 -13 23 -13 28 5 46 19 22 52 20 67 -3z m-2562
-65 c0 -14 -2 -14 -10 -1 -11 17 -12 15 -14 -21 -1 -18 3 -26 13 -25 8 1 17
-7 19 -16 2 -11 -3 -18 -12 -18 -9 0 -16 -4 -16 -9 0 -5 8 -8 18 -6 9 2 20 4
25 4 14 2 7 27 -13 49 -20 21 -20 22 -2 22 10 0 23 5 29 11 9 9 12 7 10 -8 -1
-14 -6 -19 -16 -15 -9 3 -12 1 -7 -6 4 -7 17 -13 29 -13 17 -1 18 -2 5 -6 -10
-2 -18 -8 -18 -13 0 -4 9 -6 20 -3 20 5 29 33 10 33 -5 0 -10 6 -10 14 0 13
58 41 67 32 2 -2 -10 -9 -27 -15 -19 -6 -29 -15 -25 -22 6 -8 10 -7 16 2 12
19 11 6 -1 -26 -6 -15 -6 -24 -1 -20 5 3 12 19 16 36 5 20 12 29 20 25 8 -3
16 0 19 7 3 9 5 8 5 -1 1 -7 -6 -15 -14 -18 -11 -5 -12 -9 -2 -19 7 -7 15 -11
19 -8 4 2 5 -3 2 -12 -6 -14 -8 -14 -19 1 -11 16 -13 16 -22 -1 -6 -10 -8 -27
-5 -38 4 -15 2 -18 -8 -12 -8 5 -11 3 -8 -5 2 -7 12 -14 21 -16 13 -2 16 2 12
17 -4 10 -2 19 4 19 6 0 19 10 31 22 11 12 20 18 20 12 0 -15 -14 -30 -35 -38
-19 -7 -19 -8 5 -27 20 -15 21 -18 5 -12 -18 6 -18 5 -6 -10 7 -9 10 -17 5
-17 -11 0 18 -20 30 -20 5 0 2 8 -5 18 -10 13 -10 14 0 6 7 -7 22 -9 33 -6 12
3 16 7 8 12 -6 4 3 7 19 7 17 0 28 -4 25 -9 -3 -4 -12 -8 -20 -8 -8 0 -14 -4
-14 -10 0 -5 -7 -7 -15 -4 -8 4 -15 2 -15 -3 0 -13 33 -12 43 1 6 7 7 6 4 -4
-2 -8 -12 -17 -23 -19 -10 -2 -24 -10 -30 -19 -14 -19 -84 -27 -84 -9 0 8 -3
8 -9 -2 -5 -7 -11 -9 -14 -3 -4 5 9 17 28 28 32 17 35 17 53 1 16 -15 20 -16
25 -3 5 12 -20 26 -55 30 -3 1 -10 5 -15 10 -4 5 -3 6 4 2 6 -3 14 -2 18 3 3
6 -4 15 -15 21 -11 6 -20 8 -20 4 0 -3 -7 -1 -16 7 -13 10 -17 10 -26 -2 -8
-11 -9 -11 -5 3 7 21 -25 35 -37 15 -8 -12 -12 -11 -27 4 -10 10 -25 16 -34
13 -8 -4 -15 -1 -15 6 0 6 5 8 12 4 8 -5 9 -2 5 10 -4 10 -7 25 -7 34 0 15 -2
15 -11 2 -9 -13 -10 -12 -5 2 3 10 1 20 -4 23 -6 4 -10 1 -10 -5 0 -6 -4 -8
-10 -5 -5 3 -10 2 -10 -4 0 -5 3 -11 8 -14 4 -2 1 -2 -5 -1 -7 2 -17 -5 -22
-14 -7 -12 -10 -13 -11 -3 0 7 -6 11 -15 7 -8 -3 -19 2 -24 12 -7 11 -11 12
-11 4 0 -7 -5 -10 -10 -7 -15 9 -2 25 20 25 13 0 17 -5 14 -15 -4 -10 -2 -13
8 -10 9 4 14 16 12 31 -1 13 2 24 8 24 6 0 8 -7 5 -15 -4 -8 -2 -17 3 -20 6
-4 10 -2 10 3 0 14 35 21 54 10 15 -9 16 -7 5 10 -10 17 -10 23 0 36 16 19 41
5 41 -23z m-259 3 c2 2 12 -7 22 -20 10 -13 13 -24 7 -24 -5 0 -10 5 -10 12 0
6 -3 9 -6 5 -8 -8 -28 13 -37 38 -7 18 -6 19 6 3 8 -10 16 -16 18 -14z m61 8
c5 -19 -27 -29 -37 -11 -3 5 1 6 10 3 9 -4 15 -3 14 2 -5 27 7 32 13 6z m138
-1 c0 -5 -9 -11 -20 -14 -11 -3 -20 -1 -20 3 0 5 8 11 18 13 9 3 18 5 20 6 1
0 2 -3 2 -8z m237 -26 c0 -8 -4 -12 -9 -9 -5 3 -6 10 -3 15 9 13 12 11 12 -6z
m-461 -10 c14 -13 14 -15 0 -15 -8 0 -18 -5 -22 -12 -4 -7 -3 -8 4 -4 7 4 12
2 12 -4 0 -8 6 -8 20 0 15 8 25 8 38 0 16 -11 16 -11 -1 -6 -10 3 -25 0 -33
-8 -17 -17 -19 -30 -3 -20 7 4 10 1 7 -7 -3 -8 -10 -13 -16 -12 -8 2 -8 -4 0
-22 11 -25 28 -34 28 -15 0 6 5 10 11 10 8 0 8 -5 -1 -15 -21 -26 -37 -17 -59
34 -23 55 -28 97 -9 85 8 -5 9 -2 5 9 -8 21 0 22 19 2z m6034 -8 c-19 -5 -47
-7 -62 -5 -15 3 -28 2 -28 -1 0 -9 -164 -37 -350 -61 -85 -11 -211 -34 -280
-51 -69 -16 -179 -37 -245 -45 -66 -9 -172 -28 -235 -44 -63 -16 -180 -38
-260 -50 -80 -12 -190 -33 -245 -46 -55 -13 -181 -38 -280 -54 -165 -28 -358
-68 -395 -83 -11 -5 -22 8 -38 43 -28 59 -114 174 -185 248 -42 42 -47 52 -31
52 45 0 184 -119 241 -207 14 -21 22 -24 52 -20 95 12 397 60 481 77 124 24
525 91 815 135 127 19 250 39 275 44 205 40 290 51 456 61 104 7 212 15 239
19 28 3 64 5 80 2 l30 -4 -35 -10z m-5953 -19 c-3 -7 -5 -2 -5 12 0 14 2 19 5
13 2 -7 2 -19 0 -25z m413 -55 c-11 -17 -11 -17 -6 0 3 9 1 17 -4 17 -9 0 -15
-23 -11 -44 1 -5 -6 -3 -16 4 -28 22 -29 24 -10 17 10 -4 17 -2 17 5 0 6 8 19
18 28 21 21 30 1 12 -27z m-334 8 c1 -6 0 -7 -3 -1 -2 5 -11 10 -18 10 -8 0
-17 4 -20 10 -4 6 2 7 16 1 13 -4 24 -13 25 -20z m67 22 c-17 -6 -16 -18 2
-36 13 -13 13 -16 -1 -21 -8 -3 -12 -2 -9 4 3 6 1 10 -6 10 -7 0 -9 3 -6 7 4
3 1 13 -7 22 -13 14 -12 16 12 17 15 1 21 -1 15 -3z m-143 -14 c0 -4 -9 -7
-19 -6 -11 0 -18 4 -16 7 6 9 35 8 35 -1z m442 -7 c3 -11 0 -19 -7 -19 -7 0
-10 8 -7 19 2 10 6 18 7 18 1 0 5 -8 7 -18z m27 4 c9 -11 9 -16 -1 -22 -7 -4
-10 -4 -6 1 4 4 3 14 -3 22 -6 7 -9 13 -6 13 2 0 10 -6 16 -14z m-364 -6 c3
-5 1 -10 -4 -10 -6 0 -11 5 -11 10 0 6 2 10 4 10 3 0 8 -4 11 -10z m-75 -4 c0
-3 -4 -8 -10 -11 -5 -3 -10 -1 -10 4 0 6 5 11 10 11 6 0 10 -2 10 -4z m-65
-16 c-3 -5 -14 -10 -23 -10 -15 0 -15 2 -2 10 20 13 33 13 25 0z m85 -10 c0
-5 -5 -10 -11 -10 -5 0 -7 5 -4 10 3 6 8 10 11 10 2 0 4 -4 4 -10z m30 0 c0
-5 -2 -10 -4 -10 -3 0 -8 5 -11 10 -3 6 -1 10 4 10 6 0 11 -4 11 -10z m31 -7
c8 -9 9 -14 2 -10 -6 4 -13 1 -16 -5 -3 -7 -4 -3 -4 10 1 26 1 26 18 5z m89 2
c0 -12 -19 -12 -23 0 -4 9 -1 12 9 8 7 -3 14 -7 14 -8z m272 -1 c-21 -9 -39
-11 -48 -6 -12 7 -8 9 16 10 18 0 35 3 38 6 3 3 10 6 16 5 6 0 -4 -7 -22 -15z
m-455 -16 c-3 -8 -6 -5 -6 6 -1 11 2 17 5 13 3 -3 4 -12 1 -19z m223 -3 c-10
-12 -40 -11 -40 2 0 3 7 3 15 -1 9 -3 15 0 15 10 0 8 5 12 10 9 8 -5 7 -11 0
-20z m271 -23 c-5 -2 -7 -12 -4 -22 3 -12 0 -20 -6 -20 -7 0 -9 6 -6 13 4 6 0
3 -9 -7 -8 -10 -13 -23 -9 -29 3 -6 1 -7 -6 -3 -6 4 -9 12 -6 17 4 5 1 9 -5 9
-6 0 -8 5 -5 10 4 6 11 8 16 5 8 -6 13 9 10 28 -1 5 3 6 9 2 5 -3 10 1 10 10
0 10 -5 13 -12 9 -7 -5 -8 -3 -3 6 6 10 11 9 22 -6 7 -10 10 -20 4 -22z m-437
19 c3 -4 -6 -6 -19 -3 -14 2 -25 6 -25 8 0 8 39 4 44 -5z m65 -5 c-2 -2 -15
-9 -29 -15 -24 -11 -24 -11 -6 3 16 13 49 24 35 12z m-128 -15 c11 -2 6 -28
-5 -28 -6 0 -19 -4 -28 -8 -11 -4 -18 -3 -18 4 0 6 3 10 8 10 17 -3 32 2 32
10 0 4 -11 7 -25 6 -14 -2 -23 1 -20 6 4 5 16 7 28 5 12 -3 25 -5 28 -5z m300
-7 c8 -10 8 -14 0 -14 -6 0 -11 6 -12 13 0 9 -2 9 -6 -1 -4 -10 -8 -10 -20 -1
-12 10 -16 10 -24 -2 -5 -8 -9 -9 -9 -3 0 6 2 13 5 16 11 11 55 5 66 -8z m265
-2 c-10 -2 -22 0 -28 6 -6 6 0 7 19 4 21 -5 23 -7 9 -10z m-475 -18 c24 -14
35 -23 24 -19 -11 5 -28 8 -37 9 -9 0 -15 4 -12 8 2 4 -4 11 -13 17 -10 6 -15
11 -12 11 4 0 27 -12 50 -26z m129 16 c0 -5 -2 -10 -4 -10 -3 0 -8 5 -11 10
-3 6 -1 10 4 10 6 0 11 -4 11 -10z m304 -12 c-5 -8 -2 -9 11 -4 15 5 16 4 5
-9 -8 -9 -9 -15 -2 -15 6 0 16 8 22 18 11 16 11 16 6 0 -6 -19 9 -25 17 -8 3
6 4 5 3 -2 -1 -7 -11 -14 -22 -15 -10 -1 -34 -4 -53 -7 -33 -5 -34 -5 -13 10
12 8 19 21 16 29 -4 8 -1 15 6 15 6 0 8 -5 4 -12z m102 -3 c-3 -9 0 -15 10
-15 8 0 12 5 9 10 -3 6 1 10 9 10 9 0 13 -6 10 -14 -7 -17 55 -31 70 -15 8 8
6 10 -8 7 -10 -1 -21 2 -23 9 -3 9 4 10 26 3 16 -4 32 -6 35 -3 3 3 11 1 18
-4 7 -6 22 -13 33 -17 11 -3 2 -3 -19 0 -26 4 -42 1 -47 -8 -14 -21 -11 -25
27 -33 33 -6 35 -7 18 -20 -26 -20 -39 -18 -23 3 13 15 12 16 -2 4 -14 -10
-18 -10 -23 4 -5 12 -10 14 -19 5 -8 -6 -23 -12 -34 -14 -25 -3 -61 -37 -41
-37 10 0 9 -3 -2 -10 -23 -15 -29 -12 -23 10 4 16 0 20 -21 20 -14 0 -26 4
-26 9 0 8 30 8 55 0 12 -4 55 22 55 34 0 4 -12 1 -27 -6 -16 -8 -34 -12 -40
-10 -21 8 -15 39 7 40 11 1 18 -2 15 -7 -3 -5 -1 -11 4 -14 10 -7 23 19 14 28
-4 3 -19 6 -35 6 -26 0 -27 2 -16 20 15 24 23 26 14 5z m-346 -12 c0 -3 -7 -3
-15 0 -8 4 -17 2 -20 -2 -6 -11 -75 -10 -75 0 0 4 16 6 35 4 19 -2 37 1 40 6
6 8 35 2 35 -8z m154 -11 c2 -4 -4 -8 -15 -8 -10 0 -19 4 -19 8 0 4 6 8 14 8
8 0 17 -4 20 -8z m-394 -6 c0 -2 -7 -7 -16 -10 -8 -3 -12 -2 -9 4 6 10 25 14
25 6z m-44 -23 c-4 -9 -1 -20 6 -25 8 -6 4 -7 -11 -3 -20 6 -23 4 -18 -10 4
-9 7 -21 7 -25 0 -5 16 -12 35 -16 20 -3 34 -9 31 -11 -2 -3 -18 -2 -36 2 -23
5 -34 16 -45 42 -17 40 -19 55 -6 34 7 -11 12 -10 22 8 16 25 24 28 15 4z
m178 2 c-4 -8 -8 -15 -10 -15 -2 0 -4 7 -4 15 0 8 4 15 10 15 5 0 7 -7 4 -15z
m36 -10 c0 -9 6 -12 15 -9 8 4 15 2 15 -4 0 -6 -6 -13 -12 -15 -7 -3 -4 -6 8
-6 11 -1 26 5 34 12 12 10 12 9 1 -5 -8 -11 -25 -17 -45 -16 -18 1 -38 -2 -44
-6 -8 -4 -10 -2 -6 8 3 8 12 12 20 9 8 -3 14 0 14 6 0 6 -8 11 -17 11 -14 0
-15 2 -4 9 8 5 10 14 6 21 -5 9 -4 11 3 6 7 -4 12 -14 12 -21z m570 21 c0 -3
-4 -8 -10 -11 -5 -3 -10 -1 -10 4 0 6 5 11 10 11 6 0 10 -2 10 -4z m-706 -19
c4 4 4 -1 0 -10 -3 -10 -7 -17 -8 -15 -1 2 -8 12 -16 23 -14 18 -13 19 1 8 9
-7 19 -10 23 -6z m309 -7 c-3 -12 -8 -19 -11 -16 -5 6 5 36 12 36 2 0 2 -9 -1
-20z m49 3 c4 -13 -1 -18 -18 -18 -21 0 -21 1 -6 17 10 9 18 17 18 17 1 1 4
-7 6 -16z m59 -16 c10 3 19 9 19 12 0 4 6 8 13 9 6 0 23 4 36 8 19 5 22 4 16
-6 -6 -10 -4 -12 8 -7 10 3 17 2 17 -2 0 -5 -7 -11 -15 -15 -8 -3 -15 -12 -15
-21 0 -19 -26 -20 -34 0 -3 8 -1 15 4 15 6 0 10 -6 11 -12 0 -7 4 -4 8 7 10
24 2 43 -10 24 -5 -8 -9 -10 -9 -5 0 5 -8 2 -18 -7 -10 -9 -28 -15 -39 -12
-15 2 -20 -1 -17 -9 6 -16 -23 -29 -32 -15 -3 6 -3 13 0 16 3 4 6 1 6 -6 0 -7
4 -10 10 -6 6 4 6 15 0 31 -14 36 -11 43 6 18 10 -14 22 -20 35 -17z m-221 19
c0 -3 -4 -8 -10 -11 -5 -3 -10 -1 -10 4 0 6 5 11 10 11 6 0 10 -2 10 -4z m63
-3 c3 -5 1 -17 -3 -27 -6 -17 -7 -18 -13 -3 -4 10 -1 17 6 17 8 0 6 4 -3 10
-9 6 -10 10 -3 10 6 0 14 -3 16 -7z m164 1 c-3 -3 -12 -4 -19 -1 -8 3 -5 6 6
6 11 1 17 -2 13 -5z m-407 -34 c-8 -5 -19 -10 -25 -10 -5 0 -3 5 5 10 8 5 20
10 25 10 6 0 3 -5 -5 -10z m271 -12 c6 -13 8 -20 4 -16 -4 4 -15 3 -24 -1 -11
-6 -23 -4 -36 5 -10 8 -14 14 -8 14 7 0 14 -4 18 -10 9 -14 34 0 28 16 -8 23
5 16 18 -8z m59 12 c0 -5 -5 -10 -11 -10 -5 0 -7 5 -4 10 3 6 8 10 11 10 2 0
4 -4 4 -10z m324 1 c3 -5 -1 -22 -9 -37 -8 -16 -15 -36 -16 -44 0 -10 -3 -8
-8 5 -5 11 -4 23 0 26 5 3 10 17 11 32 2 27 12 35 22 18z m-739 -11 c3 -5 1
-10 -4 -10 -6 0 -11 5 -11 10 0 6 2 10 4 10 3 0 8 -4 11 -10z m525 0 c0 -5 -4
-10 -10 -10 -5 0 -10 5 -10 10 0 6 5 10 10 10 6 0 10 -4 10 -10z m180 -10 c0
-11 -5 -20 -11 -20 -6 0 -9 -6 -6 -14 8 -19 -48 -76 -74 -76 -16 0 -20 -4 -14
-17 4 -13 3 -15 -5 -7 -17 17 -1 46 21 39 15 -5 18 -2 13 12 -4 13 -3 15 4 4
8 -11 11 -11 18 0 4 7 3 14 -4 17 -18 6 -14 32 4 32 10 0 14 6 10 15 -3 8 2
19 12 24 25 15 32 13 32 -9z m-210 0 c0 -5 -2 -10 -4 -10 -3 0 -8 5 -11 10 -3
6 -1 10 4 10 6 0 11 -4 11 -10z m-280 -10 c8 -5 11 -12 7 -17 -5 -4 -12 -1
-18 7 -8 13 -12 12 -24 -4 -12 -16 -15 -17 -15 -4 0 14 12 25 30 27 3 0 12 -3
20 -9z m400 0 c-1 -13 -20 -34 -34 -36 -21 -3 -20 5 2 23 16 14 16 14 -1 9
-10 -3 -15 -2 -12 3 6 10 45 11 45 1z m181 0 c13 -8 19 -7 19 0 0 6 7 4 16 -5
9 -9 13 -19 9 -23 -4 -4 -10 -1 -12 6 -3 8 -11 4 -25 -13 -16 -20 -23 -23 -38
-15 -16 9 -22 5 -36 -22 -12 -22 -19 -28 -22 -18 -3 7 0 16 7 18 6 2 11 9 11
16 0 19 47 39 54 23 2 -7 5 -5 5 5 1 20 -21 37 -27 20 -2 -7 -8 -12 -14 -12
-6 0 -6 6 2 15 15 18 25 19 51 5z m-321 -10 c0 -5 -5 -10 -11 -10 -5 0 -7 5
-4 10 3 6 8 10 11 10 2 0 4 -4 4 -10z m71 -13 c-10 -9 -11 -8 -5 6 3 10 9 15
12 12 3 -3 0 -11 -7 -18z m-245 0 c4 -4 2 -12 -3 -19 -6 -7 -9 -23 -8 -35 1
-12 -4 -24 -11 -27 -10 -4 -11 1 -4 19 8 20 6 25 -7 25 -9 0 -13 3 -9 8 4 4
13 7 19 7 5 0 12 6 15 14 3 8 0 11 -5 8 -5 -3 -15 -1 -23 4 -12 7 -10 8 7 6
12 -2 25 -6 29 -10z m64 3 c0 -5 -4 -10 -10 -10 -5 0 -10 5 -10 10 0 6 5 10
10 10 6 0 10 -4 10 -10z m75 -10 c-4 -7 -18 -9 -31 -6 -24 6 -34 -7 -14 -17 6
-3 5 -4 -2 -3 -7 2 -13 9 -13 17 0 9 9 13 28 11 16 -2 27 2 27 9 0 7 3 10 6 6
3 -3 3 -11 -1 -17z m-192 -15 c-7 -21 -12 -19 -10 4 0 11 5 18 9 15 4 -3 5
-11 1 -19z m80 10 c-3 -9 -8 -14 -10 -11 -3 3 -2 9 2 15 9 16 15 13 8 -4z
m-231 -17 c-7 -7 -12 -8 -12 -2 0 14 12 26 19 19 2 -3 -1 -11 -7 -17z m406 13
c1 -1 -2 -9 -7 -19 -5 -10 -20 -18 -33 -19 -17 -2 -19 0 -8 7 8 5 18 6 22 4 4
-3 8 -1 8 5 0 20 -18 20 -44 0 -17 -13 -24 -15 -20 -6 9 24 48 37 82 28z m112
-16 c-7 -9 -15 -13 -17 -11 -6 6 20 36 26 30 2 -2 -2 -10 -9 -19z m-425 5 c3
-5 1 -10 -4 -10 -6 0 -11 5 -11 10 0 6 2 10 4 10 3 0 8 -4 11 -10z m381 -4
c11 -8 15 -18 10 -23 -5 -4 -11 -2 -13 5 -3 6 -11 12 -19 12 -8 0 -14 5 -14
10 0 14 13 12 36 -4z m-543 -23 c-22 -8 -14 -21 10 -17 20 4 21 4 2 -5 -20 -9
-45 9 -45 33 0 6 5 4 10 -4 9 -14 15 -7 10 15 -1 6 5 4 12 -4 10 -11 10 -14 1
-18z m331 -13 c-6 -5 -24 21 -24 34 0 6 6 1 14 -10 8 -10 12 -21 10 -24z m155
6 c-12 -26 -29 -35 -29 -16 0 6 4 10 9 10 5 0 11 10 14 22 4 12 9 20 12 16 3
-3 0 -17 -6 -32z m256 14 c3 -5 2 -10 -4 -10 -5 0 -13 5 -16 10 -3 6 -2 10 4
10 5 0 13 -4 16 -10z m-560 -10 c3 -5 1 -10 -4 -10 -6 0 -11 5 -11 10 0 6 2
10 4 10 3 0 8 -4 11 -10z m192 -15 c-4 -8 -12 -15 -19 -14 -10 0 -10 2 0 6 6
2 12 12 12 21 0 8 3 13 6 9 4 -3 4 -13 1 -22z m143 15 c0 -5 -4 -10 -10 -10
-5 0 -10 5 -10 10 0 6 5 10 10 10 6 0 10 -4 10 -10z m-383 -16 c-3 -3 -12 -4
-19 -1 -8 3 -5 6 6 6 11 1 17 -2 13 -5z m293 2 c0 -2 -9 -6 -20 -9 -11 -3 -20
-1 -20 4 0 5 9 9 20 9 11 0 20 -2 20 -4z m108 -10 c-7 -8 -16 -12 -20 -10 -3
2 -14 -3 -23 -12 -9 -9 -19 -14 -22 -11 -11 12 34 44 65 46 10 1 10 -2 0 -13z
m-445 -7 c-6 -6 -9 -19 -6 -28 4 -13 3 -13 -5 -2 -12 16 -5 41 11 41 8 0 8 -3
0 -11z m137 -1 c0 -11 -12 -10 -30 2 -12 7 -10 9 8 7 12 0 22 -5 22 -9z m400
3 c0 -5 -9 -11 -20 -14 -22 -6 -28 8 -7 16 19 8 27 8 27 -2z m167 -6 c8 -9 13
-19 10 -22 -6 -5 -37 21 -37 31 0 10 11 6 27 -9z m103 0 c0 -8 -7 -15 -15 -15
-25 0 -17 -15 14 -27 23 -8 29 -15 24 -32 -6 -24 -25 -40 -22 -20 4 30 -2 46
-16 46 -8 0 -15 -3 -15 -7 0 -3 -10 -6 -22 -7 -21 -2 -22 -1 -5 11 9 7 17 19
17 25 0 14 21 40 33 41 4 0 7 -7 7 -15z m-755 -5 c3 -5 1 -10 -4 -10 -6 0 -11
5 -11 10 0 6 2 10 4 10 3 0 8 -4 11 -10z m290 0 c3 -6 -1 -7 -9 -4 -18 7 -21
14 -7 14 6 0 13 -4 16 -10z m270 1 c3 -5 1 -12 -5 -16 -5 -3 -10 1 -10 9 0 18
6 21 15 7z m-697 -26 c-3 -3 -9 2 -12 12 -6 14 -5 15 5 6 7 -7 10 -15 7 -18z
m112 21 c0 -3 -4 -8 -10 -11 -5 -3 -10 -1 -10 4 0 6 5 11 10 11 6 0 10 -2 10
-4z m427 -18 c-3 -8 -6 -5 -6 6 -1 11 2 17 5 13 3 -3 4 -12 1 -19z m-217 2 c0
-5 -2 -10 -4 -10 -3 0 -8 5 -11 10 -3 6 -1 10 4 10 6 0 11 -4 11 -10z m200
-15 c10 -14 10 -17 1 -8 -7 6 -21 9 -29 5 -14 -5 -15 -4 -2 10 8 9 15 15 15
14 1 0 7 -10 15 -21z m-289 -8 c-10 -9 -11 -8 -5 6 3 10 9 15 12 12 3 -3 0
-11 -7 -18z m63 15 c3 -5 -1 -9 -9 -9 -8 0 -12 4 -9 9 3 4 7 8 9 8 2 0 6 -4 9
-8z m113 -24 c-3 -7 -5 -2 -5 12 0 14 2 19 5 13 2 -7 2 -19 0 -25z m-234 7
c-3 -9 -8 -14 -10 -11 -3 3 -2 9 2 15 9 16 15 13 8 -4z m-39 -13 c3 -5 -1 -9
-9 -9 -8 0 -12 4 -9 9 3 4 7 8 9 8 2 0 6 -4 9 -8z m186 -2 c0 -5 -2 -10 -4
-10 -3 0 -8 5 -11 10 -3 6 -1 10 4 10 6 0 11 -4 11 -10z m78 -10 c7 -11 10
-20 8 -20 -2 0 -11 -3 -20 -6 -9 -3 -16 -1 -16 6 0 6 5 8 11 4 7 -4 10 -1 7 7
-3 8 -11 13 -17 11 -7 -1 -10 2 -6 8 9 15 19 12 33 -10z m106 12 c3 -5 -1 -9
-9 -9 -8 0 -12 4 -9 9 3 4 7 8 9 8 2 0 6 -4 9 -8z m51 -2 c3 -5 1 -10 -4 -10
-6 0 -11 5 -11 10 0 6 2 10 4 10 3 0 8 -4 11 -10z m52 -10 c4 -12 3 -13 -5 -1
-5 7 -15 10 -21 7 -6 -4 -11 -2 -11 4 0 17 33 8 37 -10z m-374 -10 c-3 -12 -8
-19 -11 -16 -5 6 5 36 12 36 2 0 2 -9 -1 -20z m117 0 c6 -11 8 -20 6 -20 -3 0
-10 9 -16 20 -6 11 -8 20 -6 20 3 0 10 -9 16 -20z m516 -10 c8 0 14 -4 14 -10
0 -5 -3 -9 -7 -9 -23 4 -32 -3 -27 -18 5 -16 4 -16 -8 -3 -7 8 -28 15 -45 15
-39 -1 -40 1 -12 16 12 6 19 7 15 1 -3 -6 5 -9 19 -8 16 0 25 7 24 16 -2 25 3
36 8 18 2 -10 11 -18 19 -18z m14 20 c0 -5 -4 -10 -10 -10 -5 0 -10 5 -10 10
0 6 5 10 10 10 6 0 10 -4 10 -10z m-410 -10 c0 -5 -4 -10 -10 -10 -5 0 -10 5
-10 10 0 6 5 10 10 10 6 0 10 -4 10 -10z m175 -10 c3 -5 0 -7 -8 -4 -8 3 -18
1 -22 -5 -3 -6 -11 -11 -18 -11 -6 0 -2 7 9 15 23 17 31 18 39 5z m-596 -40
c11 -24 11 -24 -3 -6 -9 11 -16 24 -16 30 0 12 5 7 19 -24z m172 -12 c-11 -11
-13 -10 -7 0 4 7 2 21 -5 30 -12 15 -11 15 6 0 16 -15 17 -20 6 -30z m154 22
c3 -5 1 -10 -4 -10 -6 0 -11 5 -11 10 0 6 2 10 4 10 3 0 8 -4 11 -10z m35 -25
c0 -5 -5 -3 -10 5 -5 8 -10 20 -10 25 0 6 5 3 10 -5 5 -8 10 -19 10 -25z m260
25 c0 -5 7 -7 15 -4 8 4 15 1 15 -7 0 -7 -3 -9 -6 -6 -4 3 -14 2 -23 -3 -13
-6 -17 -4 -17 11 0 10 4 19 8 19 4 0 8 -4 8 -10z m1282 -19 c-9 -10 -21 -16
-26 -13 -4 2 -2 8 5 13 8 5 10 9 4 9 -5 0 -3 4 5 9 22 15 31 2 12 -18z m-579
-8 c32 -16 34 -22 8 -20 -11 0 -17 5 -14 11 4 5 -5 6 -21 2 -15 -4 -26 -2 -26
4 0 5 -5 10 -11 10 -5 0 -7 -6 -3 -12 6 -10 4 -10 -7 0 -7 6 -24 12 -38 13
-23 0 -24 1 -6 8 25 10 81 3 118 -16z m-1228 -3 c-3 -5 -12 -10 -18 -10 -7 0
-6 4 3 10 19 12 23 12 15 0z m392 4 c-3 -3 -12 -4 -19 -1 -8 3 -5 6 6 6 11 1
17 -2 13 -5z m698 -4 c3 -5 1 -10 -4 -10 -6 0 -11 5 -11 10 0 6 2 10 4 10 3 0
8 -4 11 -10z m-595 -4 c0 -3 -4 -8 -10 -11 -5 -3 -10 -1 -10 4 0 6 5 11 10 11
6 0 10 -2 10 -4z m130 -21 c8 -11 11 -17 6 -13 -4 3 -23 0 -42 -8 -19 -8 -34
-10 -34 -5 0 5 13 11 30 14 23 5 28 10 23 24 -7 20 -5 18 17 -12z m-190 9 c0
-8 -19 -13 -24 -6 -3 5 1 9 9 9 8 0 15 -2 15 -3z m80 -9 c-7 -8 -17 -15 -23
-15 -6 0 -2 7 9 15 25 19 30 19 14 0z m60 5 c0 -5 -5 -10 -11 -10 -5 0 -7 5
-4 10 3 6 8 10 11 10 2 0 4 -4 4 -10z m234 -34 c-6 -16 -24 -23 -24 -8 0 10
22 33 27 28 2 -2 1 -11 -3 -20z m461 -2 c-10 -8 -20 -12 -23 -10 -7 8 23 34
32 28 5 -3 1 -11 -9 -18z m-1255 6 c0 -5 -5 -10 -11 -10 -5 0 -7 5 -4 10 3 6
8 10 11 10 2 0 4 -4 4 -10z m482 -34 c4 -19 1 -23 -11 -19 -13 4 -13 2 2 -10
9 -8 17 -18 17 -23 0 -4 -5 -3 -11 3 -9 9 -15 8 -27 -3 -8 -8 -17 -12 -21 -9
-3 4 2 11 11 16 10 5 15 18 13 29 -2 11 0 18 6 15 5 -4 9 1 9 10 0 9 -4 13
-10 10 -15 -9 -54 -15 -46 -7 7 7 11 8 37 11 5 0 7 7 3 14 -6 9 -4 9 8 -1 9
-7 18 -23 20 -36z m594 32 c4 -6 3 -8 -4 -4 -6 3 -13 2 -17 -4 -8 -13 -25 -13
-25 1 0 5 5 7 10 4 6 -3 10 -1 10 4 0 15 17 14 26 -1z m54 2 c0 -5 -5 -10 -11
-10 -5 0 -7 5 -4 10 3 6 8 10 11 10 2 0 4 -4 4 -10z m38 -4 c-2 -1 -12 -8 -23
-16 -18 -14 -19 -13 -8 1 7 9 10 19 6 23 -4 4 1 4 10 0 10 -3 17 -7 15 -8z
m50 -3 c2 -7 -1 -13 -8 -13 -6 0 -8 5 -5 10 3 6 2 10 -4 10 -5 0 -12 -6 -14
-12 -3 -8 -6 -5 -6 5 -1 21 30 20 37 0z m92 -37 c0 -6 -5 -3 -11 6 -8 14 -15
15 -35 8 -37 -15 -44 -11 -9 5 31 13 55 5 55 -19z m-1129 1 c-10 -9 -11 -8 -5
6 3 10 9 15 12 12 3 -3 0 -11 -7 -18z m219 13 c0 -5 -5 -10 -11 -10 -5 0 -7 5
-4 10 3 6 8 10 11 10 2 0 4 -4 4 -10z m-260 -4 c0 -3 -4 -8 -10 -11 -5 -3 -10
-1 -10 4 0 6 5 11 10 11 6 0 10 -2 10 -4z m-100 -10 c0 -2 -7 -7 -16 -10 -8
-3 -12 -2 -9 4 6 10 25 14 25 6z m400 0 c0 -3 -4 -8 -10 -11 -5 -3 -10 -1 -10
4 0 6 5 11 10 11 6 0 10 -2 10 -4z m660 -11 c0 -8 -4 -15 -10 -15 -5 0 -7 7
-4 15 4 8 8 15 10 15 2 0 4 -7 4 -15z m530 11 c0 -2 -11 -6 -25 -8 -14 -3 -25
-1 -25 3 0 5 11 9 25 9 14 0 25 -2 25 -4z m565 -6 c3 -5 1 -10 -4 -10 -6 0
-11 5 -11 10 0 6 2 10 4 10 3 0 8 -4 11 -10z m-1670 -10 c4 -6 11 -7 17 -4 7
4 8 2 4 -4 -4 -6 -13 -9 -21 -5 -19 7 -19 -6 -1 -30 14 -18 14 -18 19 0 5 16
6 16 5 -2 -1 -40 5 -49 12 -20 l8 30 -1 -34 c-2 -34 -27 -58 -27 -26 0 9 -8
29 -19 43 -18 27 -24 62 -10 62 4 0 11 -5 14 -10z m655 0 c8 -5 17 -5 20 0 3
5 12 5 20 0 12 -8 11 -10 -5 -11 l-20 0 20 -9 c16 -7 17 -9 3 -9 -9 -1 -20 4
-24 10 -4 8 -9 7 -15 -2 -7 -11 -9 -10 -9 3 0 9 -6 19 -12 21 -7 3 -8 6 -3 6
6 0 17 -3 25 -9z m641 -10 c6 0 7 5 3 12 -4 7 -3 8 4 4 12 -7 3 -44 -10 -45
-25 -2 -30 2 -13 9 17 7 17 9 3 9 -12 1 -15 6 -11 18 4 11 8 12 11 5 2 -7 8
-12 13 -12z m-811 6 c0 -2 -7 -9 -15 -16 -13 -11 -14 -10 -9 4 5 14 24 23 24
12z m31 -29 c-10 -9 -11 -8 -5 6 3 10 9 15 12 12 3 -3 0 -11 -7 -18z m239 13
c0 -5 -5 -10 -11 -10 -5 0 -7 5 -4 10 3 6 8 10 11 10 2 0 4 -4 4 -10z m-170
-4 c0 -11 -19 -15 -25 -6 -3 5 1 10 9 10 9 0 16 -2 16 -4z m216 -7 c8 -14 -18
-31 -30 -19 -9 9 0 30 14 30 5 0 12 -5 16 -11z m334 -9 c0 -11 -5 -20 -11 -20
-5 0 -7 5 -3 12 5 8 2 9 -9 5 -10 -3 -17 -2 -17 2 0 9 16 18 33 20 4 1 7 -8 7
-19z m-1283 -17 c2 -6 -1 -14 -6 -18 -6 -3 -9 0 -6 7 4 9 -2 14 -15 15 -11 1
-20 -3 -20 -9 0 -6 -3 -9 -6 -5 -3 3 -3 10 1 16 8 13 48 8 52 -6z m139 -10
c17 -27 17 -28 -1 -13 -17 14 -18 13 -12 -2 9 -26 2 -22 -19 10 -17 26 -17 27
1 12 17 -14 18 -13 12 3 -9 25 -2 21 19 -10z m464 7 c-12 -12 -18 -25 -15 -30
4 -6 1 -10 -4 -10 -14 0 -14 3 1 35 6 14 17 25 25 25 9 0 6 -7 -7 -20z m135
10 c-3 -5 -12 -10 -18 -10 -7 0 -6 4 3 10 19 12 23 12 15 0z m65 6 c0 -2 -7
-7 -16 -10 -8 -3 -12 -2 -9 4 6 10 25 14 25 6z m39 -18 c0 -16 -2 -18 -6 -8
-3 8 -11 18 -17 22 -7 5 -4 8 7 8 11 0 17 -7 16 -22z m-979 8 c0 -2 -13 -9
-30 -15 -35 -12 -41 -5 -7 9 25 10 37 12 37 6z m165 -6 c3 -5 1 -10 -4 -10 -6
0 -11 5 -11 10 0 6 2 10 4 10 3 0 8 -4 11 -10z m785 -10 c-8 -5 -28 -9 -45 -9
-30 2 -30 2 5 9 51 11 57 11 40 0z m-711 -41 c-6 -4 -8 -12 -5 -18 4 -6 2 -11
-3 -11 -6 0 -12 6 -12 13 -1 6 -3 22 -4 35 -2 22 -1 22 17 6 13 -12 15 -20 7
-25z m626 31 c3 -5 1 -10 -4 -10 -6 0 -11 5 -11 10 0 6 2 10 4 10 3 0 8 -4 11
-10z m632 -6 c-3 -3 -12 -4 -19 -1 -8 3 -5 6 6 6 11 1 17 -2 13 -5z m-411 -22
c1 -7 0 -8 -3 -2 -2 5 -14 10 -24 10 -11 0 -18 -4 -15 -9 3 -4 -7 -6 -22 -3
l-27 6 25 7 c35 10 63 6 66 -9z m-886 -7 c7 -9 8 -15 2 -15 -5 0 -12 7 -16 15
-3 8 -4 15 -2 15 2 0 9 -7 16 -15z m90 5 c0 -5 -5 -10 -11 -10 -5 0 -7 5 -4
10 3 6 8 10 11 10 2 0 4 -4 4 -10z m1052 -12 c-3 -13 1 -18 14 -18 17 -1 17
-2 -2 -13 -14 -8 -21 -21 -20 -39 1 -14 -3 -26 -9 -25 -5 1 -9 -7 -7 -18 2
-16 1 -17 -7 -6 -6 9 -6 21 0 32 12 23 12 52 -1 44 -5 -3 -10 -1 -10 4 0 6 8
11 18 11 10 0 13 3 6 8 -17 11 -13 38 6 38 11 0 15 -6 12 -18z m-1583 -58 c0
-23 -15 7 -22 45 l-6 30 14 -30 c8 -16 14 -37 14 -45z m266 60 c3 -5 1 -10 -4
-10 -6 0 -11 5 -11 10 0 6 2 10 4 10 3 0 8 -4 11 -10z m695 0 c8 -5 11 -10 5
-10 -5 0 -17 5 -25 10 -8 5 -10 10 -5 10 6 0 17 -5 25 -10z m-735 -10 c-3 -5
-12 -10 -18 -10 -7 0 -6 4 3 10 19 12 23 12 15 0z m142 -12 c-3 -8 -6 -5 -6 6
-1 11 2 17 5 13 3 -3 4 -12 1 -19z m27 -18 c-5 -5 -10 3 -11 18 -1 22 0 24 9
8 6 -10 6 -22 2 -26z m651 30 c-3 -5 -12 -10 -18 -10 -7 0 -6 4 3 10 19 12 23
12 15 0z m-881 -16 c5 -14 4 -15 -9 -4 -17 14 -19 20 -6 20 5 0 12 -7 15 -16z
m161 6 c3 -5 1 -10 -4 -10 -6 0 -11 5 -11 10 0 6 2 10 4 10 3 0 8 -4 11 -10z
m630 -21 c-4 -5 -12 -9 -18 -9 -7 0 -6 4 3 10 13 8 12 10 -2 10 -10 0 -18 -5
-18 -12 0 -6 -2 -9 -5 -6 -3 3 -3 12 1 21 5 13 10 14 25 6 11 -5 17 -14 14
-20z m-665 11 c0 -5 -5 -10 -11 -10 -5 0 -7 5 -4 10 3 6 8 10 11 10 2 0 4 -4
4 -10z m885 0 c3 -6 -1 -7 -9 -4 -18 7 -21 14 -7 14 6 0 13 -4 16 -10z m483
-6 c12 7 38 -22 28 -31 -3 -3 -6 -1 -6 5 0 7 -11 12 -24 12 -13 0 -27 7 -30
16 -5 14 -4 15 8 5 8 -7 19 -10 24 -7z m1871 -8 c25 -13 91 -48 146 -78 414
-228 455 -255 455 -296 0 -12 -3 -13 -12 -4 -7 7 -20 12 -30 12 -10 0 -48 10
-85 22 -65 21 -121 53 -201 116 -20 16 -52 37 -69 46 -18 9 -65 43 -104 76
-39 33 -74 60 -78 60 -9 1 -85 70 -77 70 5 0 29 -11 55 -24z m-3482 -8 c-3 -8
-6 -5 -6 6 -1 11 2 17 5 13 3 -3 4 -12 1 -19z m87 6 c3 -8 2 -12 -4 -9 -6 3
-10 10 -10 16 0 14 7 11 14 -7z m887 -1 c13 -17 13 -17 -6 -3 -11 8 -22 16
-24 17 -2 2 0 3 6 3 6 0 17 -8 24 -17z m131 -19 c-6 -31 -9 -30 -14 5 -3 19 0
27 7 24 7 -2 10 -15 7 -29z m-82 22 c0 -2 -7 -7 -16 -10 -8 -3 -12 -2 -9 4 6
10 25 14 25 6z m155 -16 c13 -6 15 -9 5 -9 -8 0 -22 4 -30 9 -18 12 -2 12 25
0z m566 -6 c-17 -13 -25 -14 -34 -5 -9 9 -8 11 4 6 10 -4 20 -2 24 4 3 6 11
11 18 11 6 0 1 -7 -12 -16z m-841 2 c0 -2 -7 -7 -16 -10 -8 -3 -12 -2 -9 4 6
10 25 14 25 6z m385 -6 c8 -13 -5 -13 -25 0 -13 8 -13 10 2 10 9 0 20 -4 23
-10z m205 -10 c-6 -11 -13 -20 -16 -20 -2 0 0 9 6 20 6 11 13 20 16 20 2 0 0
-9 -6 -20z m95 9 c11 -16 1 -19 -13 -3 -7 8 -8 14 -3 14 5 0 13 -5 16 -11z
m-444 -22 c-10 -9 -11 -8 -5 6 3 10 9 15 12 12 3 -3 0 -11 -7 -18z m410 6 c13
-16 12 -17 -3 -4 -17 13 -22 21 -14 21 2 0 10 -8 17 -17z m129 -15 c0 -5 -7
-3 -15 6 -8 8 -15 18 -15 22 0 3 7 1 15 -6 8 -7 15 -17 15 -22z m-1711 -23 c0
-5 -4 -3 -9 5 -5 8 -9 22 -9 30 0 16 17 -16 18 -35z m105 29 c3 -8 2 -12 -4
-9 -6 3 -10 10 -10 16 0 14 7 11 14 -7z m66 1 c0 -8 -2 -15 -4 -15 -2 0 -6 7
-10 15 -3 8 -1 15 4 15 6 0 10 -7 10 -15z m940 11 c0 -3 -4 -8 -10 -11 -5 -3
-10 -1 -10 4 0 6 5 11 10 11 6 0 10 -2 10 -4z m550 -10 c-7 -7 -13 -7 -20 0
-6 6 -3 10 10 10 13 0 16 -4 10 -10z m75 4 c3 -5 1 -10 -4 -10 -6 0 -11 5 -11
10 0 6 2 10 4 10 3 0 8 -4 11 -10z m65 4 c0 -8 -19 -13 -24 -6 -3 5 1 9 9 9 8
0 15 -2 15 -3z m-1720 -29 c0 -7 -30 -13 -34 -7 -3 4 4 9 15 9 10 1 19 0 19
-2z m1251 -18 c-10 -9 -11 -8 -5 6 3 10 9 15 12 12 3 -3 0 -11 -7 -18z m184
13 c3 -5 1 -10 -4 -10 -6 0 -11 5 -11 10 0 6 2 10 4 10 3 0 8 -4 11 -10z m298
3 c-7 -2 -19 -2 -25 0 -7 3 -2 5 12 5 14 0 19 -2 13 -5z m-413 -11 c0 -5 -7
-9 -15 -9 -8 0 -12 4 -9 9 3 4 9 8 15 8 5 0 9 -4 9 -8z m190 -4 c0 -11 -12
-10 -30 2 -12 7 -10 9 8 7 12 0 22 -5 22 -9z m250 2 c0 -5 -5 -10 -11 -10 -5
0 -7 5 -4 10 3 6 8 10 11 10 2 0 4 -4 4 -10z m-720 -10 c-8 -5 -19 -10 -25
-10 -5 0 -3 5 5 10 8 5 20 10 25 10 6 0 3 -5 -5 -10z m530 6 c0 -2 -7 -6 -15
-10 -8 -3 -15 -1 -15 4 0 6 7 10 15 10 8 0 15 -2 15 -4z m28 -27 c-3 -8 -7 -3
-11 10 -4 17 -3 21 5 13 5 -5 8 -16 6 -23z m188 16 c-8 -8 -18 -15 -22 -15 -3
0 -1 7 6 15 7 8 17 15 22 15 5 0 3 -7 -6 -15z m-339 -1 c-3 -3 -12 -4 -19 -1
-8 3 -5 6 6 6 11 1 17 -2 13 -5z m-647 -20 c0 -2 -11 -3 -24 -2 -14 1 -23 5
-20 9 4 7 44 0 44 -7z m517 10 c-3 -3 -12 -4 -19 -1 -8 3 -5 6 6 6 11 1 17 -2
13 -5z m503 -9 c0 -1 -9 -5 -19 -8 -13 -3 -18 -1 -14 9 4 10 33 10 33 -1z
m-665 -5 c-3 -5 -14 -10 -23 -9 -14 0 -13 2 3 9 27 11 27 11 20 0z m129 -15
c-4 -8 -10 -15 -15 -15 -4 0 -6 7 -3 15 4 8 10 15 15 15 4 0 6 -7 3 -15z m44
-9 c0 -21 -3 -23 -14 -11 -8 7 -14 18 -14 24 0 6 6 11 14 11 8 0 14 -10 14
-24z m147 6 c-3 -3 -11 0 -18 7 -9 10 -8 11 6 5 10 -3 15 -9 12 -12z m185 8
c0 -5 -5 -10 -11 -10 -5 0 -7 5 -4 10 3 6 8 10 11 10 2 0 4 -4 4 -10z m-870
-16 c0 -2 -11 -3 -24 -2 -14 1 -23 5 -20 9 4 7 44 0 44 -7z m666 -13 c1 -6 0
-7 -3 -1 -2 5 -11 10 -18 10 -8 0 -17 4 -20 10 -4 6 2 7 16 1 13 -4 24 -13 25
-20z m129 21 c14 -10 17 -32 5 -32 -5 0 -10 6 -10 14 0 8 -6 17 -12 19 -7 3
-8 6 -3 6 6 0 15 -3 20 -7z m45 -2 c0 -5 -5 -10 -11 -10 -5 0 -7 5 -4 10 3 6
8 10 11 10 2 0 4 -4 4 -10z m-100 -4 c0 -2 -7 -7 -16 -10 -8 -3 -12 -2 -9 4 6
10 25 14 25 6z m-250 -20 c0 -2 -7 -7 -16 -10 -8 -3 -12 -2 -9 4 6 10 25 14
25 6z m566 -16 c0 -12 -4 -16 -9 -11 -5 5 -6 14 -3 20 10 15 12 14 12 -9z
m-169 -6 c-3 -3 -12 -4 -19 -1 -8 3 -5 6 6 6 11 1 17 -2 13 -5z m-262 -14 c3
-5 1 -10 -4 -10 -6 0 -11 5 -11 10 0 6 2 10 4 10 3 0 8 -4 11 -10z m-78 -15
c0 -8 -4 -12 -9 -9 -4 3 -8 9 -8 15 0 5 4 9 8 9 5 0 9 -7 9 -15z m548 5 c3 -6
-1 -7 -9 -4 -18 7 -21 14 -7 14 6 0 13 -4 16 -10z m-1132 -25 c-3 -9 -8 -14
-10 -11 -3 3 -2 9 2 15 9 16 15 13 8 -4z m1092 -3 c-3 -3 -11 0 -18 7 -9 10
-8 11 6 5 10 -3 15 -9 12 -12z m-1132 -7 c-3 -9 -8 -14 -10 -11 -3 3 -2 9 2
15 9 16 15 13 8 -4z m977 11 c0 -3 -4 -8 -10 -11 -5 -3 -10 -1 -10 4 0 6 5 11
10 11 6 0 10 -2 10 -4z m-346 -14 c2 -4 -5 -9 -17 -9 -17 -2 -19 0 -7 7 18 12
18 12 24 2z m-294 -6 c0 -3 -4 -8 -10 -11 -5 -3 -10 -1 -10 4 0 6 5 11 10 11
6 0 10 -2 10 -4z m224 -22 c3 -8 2 -12 -4 -9 -6 3 -10 10 -10 16 0 14 7 11 14
-7z m56 -2 c0 -4 -10 -9 -22 -9 -18 -2 -20 0 -8 7 18 12 30 13 30 2z m500 -24
c0 -4 -7 -8 -15 -8 -8 0 -15 4 -15 8 0 5 7 9 15 9 8 0 15 -4 15 -9z m-1136 -7
c3 -5 -1 -14 -8 -20 -12 -10 -13 -8 -9 8 6 23 9 25 17 12z m2500 -92 c32 -38
33 -69 2 -98 -30 -29 -57 -22 -91 23 -32 42 -31 59 1 85 37 29 58 26 88 -10z
m1122 -193 c41 -41 42 -58 8 -85 -36 -28 -62 -26 -96 6 -32 30 -36 67 -11 95
25 28 61 22 99 -16z"/>
<path d="M4570 7200 c0 -6 -5 -8 -11 -4 -8 4 -8 0 0 -15 7 -11 14 -21 17 -21
3 0 2 5 -2 11 -3 6 -1 15 6 19 9 5 9 9 1 14 -6 4 -11 2 -11 -4z"/>
<path d="M4898 6705 c11 -22 28 -49 37 -60 9 -11 5 3 -10 30 -34 61 -55 85
-27 30z"/>
<path d="M4651 6467 c-18 -18 -13 -55 10 -67 32 -18 51 -5 47 31 -3 35 -37 56
-57 36z"/>
<path d="M4564 6235 c-21 -32 -4 -58 35 -53 20 2 27 9 29 32 6 48 -37 62 -64
21z"/>
<path d="M6121 4281 c-17 -11 -8 -56 13 -64 8 -3 25 3 38 14 l23 19 -24 20
c-26 22 -30 23 -50 11z"/>
<path d="M6433 4283 c-21 -8 -16 -71 6 -83 31 -16 49 -12 66 14 19 28 12 50
-21 65 -27 12 -32 12 -51 4z"/>
<path d="M3420 4409 c-19 -12 -49 -35 -67 -53 -18 -17 -60 -41 -98 -55 -83
-29 -135 -76 -135 -120 0 -70 55 -121 129 -121 44 0 96 49 110 104 6 23 31 79
56 124 44 79 66 142 49 142 -5 0 -25 -10 -44 -21z"/>
<path d="M2200 4116 c0 -7 7 -13 15 -13 8 0 15 4 15 8 0 4 -7 9 -15 13 -9 3
-15 0 -15 -8z"/>
<path d="M2147 4089 c7 -7 15 -10 18 -7 3 3 -2 9 -12 12 -14 6 -15 5 -6 -5z"/>
<path d="M2215 4069 c-4 -6 -5 -12 -2 -15 2 -3 7 2 10 11 7 17 1 20 -8 4z"/>
<path d="M2246 4027 c3 -10 9 -15 12 -12 3 3 0 11 -7 18 -10 9 -11 8 -5 -6z"/>
<path d="M2121 3994 c0 -11 3 -14 6 -6 3 7 2 16 -1 19 -3 4 -6 -2 -5 -13z"/>
<path d="M2936 3684 c-5 -10 -10 -30 -11 -44 -2 -21 -1 -19 12 9 7 18 12 38
10 44 -2 6 -7 2 -11 -9z"/>
<path d="M2954 3644 c-6 -19 -8 -34 -3 -34 8 0 24 59 17 65 -2 2 -8 -12 -14
-31z"/>
<path d="M2984 3661 c0 -11 4 -17 8 -15 4 3 8 12 8 20 0 8 -4 14 -8 14 -4 0
-8 -9 -8 -19z"/>
<path d="M3014 3653 c-1 -10 -4 -27 -8 -38 -6 -16 -6 -17 3 -5 10 13 12 13 21
0 6 -9 10 -10 10 -3 0 6 -4 14 -9 17 -5 3 -7 15 -4 26 3 11 1 20 -4 20 -5 0
-9 -8 -9 -17z"/>
<path d="M3066 3630 c-18 -18 -18 -19 3 -13 12 3 21 12 21 19 0 17 -1 17 -24
-6z"/>
<path d="M3097 3620 c-3 -11 -3 -20 -1 -20 2 0 8 9 14 20 6 11 7 20 2 20 -6 0
-12 -9 -15 -20z"/>
<path d="M4060 3618 c0 -19 2 -20 11 -8 8 12 9 11 6 -5 -2 -11 -9 -19 -16 -17
-7 1 -10 -2 -6 -7 8 -15 35 -2 36 18 0 12 2 12 9 -4 5 -11 9 -14 9 -7 1 7 6
10 11 7 6 -4 7 -11 4 -17 -4 -7 -2 -8 4 -4 7 4 12 2 12 -4 0 -6 5 -8 10 -5 6
3 10 1 10 -6 0 -7 3 -10 6 -6 4 3 19 0 35 -9 16 -8 29 -10 29 -5 0 5 -13 14
-30 19 -16 6 -49 24 -72 40 -68 45 -68 45 -68 20z"/>
<path d="M2972 3606 c-9 -20 -8 -25 8 -29 13 -3 17 -11 13 -25 -5 -22 12 -38
23 -21 4 8 3 9 -4 5 -7 -4 -12 -1 -12 8 0 8 6 17 13 19 8 4 7 6 -3 6 -13 1
-13 2 0 12 12 8 11 9 -5 7 -15 -2 -19 2 -18 20 3 28 -1 28 -15 -2z"/>
<path d="M4004 3588 c-4 -7 -4 -10 1 -6 4 4 15 2 24 -5 14 -11 14 -10 2 6 -16
20 -18 21 -27 5z"/>
<path d="M3973 3575 c0 -8 4 -12 9 -9 5 3 6 10 3 15 -9 13 -12 11 -12 -6z"/>
<path d="M2920 3563 c0 -13 5 -23 10 -23 13 0 13 11 0 30 -8 12 -10 11 -10 -7z"/>
<path d="M3041 3564 c0 -11 3 -14 6 -6 3 7 2 16 -1 19 -3 4 -6 -2 -5 -13z"/>
<path d="M3110 3566 c0 -7 9 -16 20 -19 11 -3 18 -1 15 3 -3 5 0 10 7 12 9 3
9 6 0 12 -7 4 -12 2 -12 -3 0 -6 -5 -11 -11 -11 -5 0 -7 5 -4 10 3 6 1 10 -4
10 -6 0 -11 -6 -11 -14z"/>
<path d="M4088 3563 c-10 -2 -18 -9 -18 -14 0 -5 -9 -9 -19 -9 -11 0 -22 -4
-26 -9 -3 -6 6 -8 22 -5 15 3 30 10 34 15 3 5 12 8 20 6 8 -2 11 -2 6 0 -4 3
-5 9 -1 14 3 5 4 8 2 8 -2 -1 -11 -3 -20 -6z"/>
<path d="M3982 3548 c-7 -7 -12 -19 -12 -27 0 -14 -1 -14 -10 -1 -6 9 -10 10
-10 3 0 -26 19 -22 33 7 17 33 17 36 -1 18z"/>
<path d="M3194 3530 c0 -13 4 -16 10 -10 7 7 7 13 0 20 -6 6 -10 3 -10 -10z"/>
<path d="M4000 3535 c-7 -9 -8 -15 -2 -15 5 0 12 7 16 15 3 8 4 15 2 15 -2 0
-9 -7 -16 -15z"/>
<path d="M3114 3528 c-10 -16 -14 -59 -4 -53 4 3 11 -2 14 -11 9 -24 7 -28 -8
-14 -13 10 -13 8 -3 -14 14 -29 17 -28 21 10 2 17 -3 33 -12 40 -12 8 -12 15
-3 32 12 23 8 31 -5 10z"/>
<path d="M4243 3525 c0 -7 6 -11 14 -8 7 3 13 6 13 8 0 2 -6 5 -13 8 -8 3 -14
-1 -14 -8z"/>
<path d="M3085 3519 c-4 -6 -5 -12 -2 -15 2 -3 7 2 10 11 7 17 1 20 -8 4z"/>
<path d="M3133 3515 c-3 -9 -3 -18 -1 -21 3 -3 8 4 11 16 6 23 -1 27 -10 5z"/>
<path d="M4195 3510 c27 -12 43 -12 25 0 -8 5 -22 9 -30 9 -10 0 -8 -3 5 -9z"/>
<path d="M2710 3500 c0 -5 5 -10 10 -10 6 0 10 5 10 10 0 6 -4 10 -10 10 -5 0
-10 -4 -10 -10z"/>
<path d="M3984 3499 c-3 -6 -15 -9 -25 -6 -11 3 -16 1 -13 -5 3 -5 15 -8 25
-5 10 3 20 2 22 -2 2 -3 2 -1 1 6 -2 6 2 14 9 17 9 3 9 5 0 5 -6 1 -15 -4 -19
-10z"/>
<path d="M4250 3500 c-9 -6 -10 -10 -3 -10 6 0 15 5 18 10 8 12 4 12 -15 0z"/>
<path d="M3895 3490 c-8 -13 5 -13 25 0 13 8 13 10 -2 10 -9 0 -20 -4 -23 -10z"/>
<path d="M3060 3478 c0 -4 4 -8 9 -8 6 0 12 4 15 8 3 5 -1 9 -9 9 -8 0 -15 -4
-15 -9z"/>
<path d="M3156 3482 c-3 -5 1 -9 9 -9 8 0 12 4 9 9 -3 4 -7 8 -9 8 -2 0 -6 -4
-9 -8z"/>
<path d="M3934 3472 c4 -6 3 -20 -3 -30 -6 -11 -6 -24 0 -33 10 -16 10 -16 14
29 1 18 -2 35 -8 39 -6 3 -7 1 -3 -5z"/>
<path d="M4250 3476 c0 -2 9 -6 20 -9 11 -3 20 -1 20 4 0 5 -9 9 -20 9 -11 0
-20 -2 -20 -4z"/>
<path d="M3887 3463 c-10 -9 -9 -23 1 -23 5 0 9 7 9 15 0 17 -1 18 -10 8z"/>
<path d="M4078 3463 c6 -2 9 -10 6 -15 -4 -7 -2 -8 5 -4 13 9 5 26 -12 25 -9
0 -8 -2 1 -6z"/>
<path d="M4340 3460 c0 -5 5 -10 11 -10 5 0 7 5 4 10 -3 6 -8 10 -11 10 -2 0
-4 -4 -4 -10z"/>
<path d="M2855 3450 c-3 -5 -1 -10 4 -10 6 0 11 5 11 10 0 6 -2 10 -4 10 -3 0
-8 -4 -11 -10z"/>
<path d="M4151 3435 c-13 -14 -21 -28 -17 -32 3 -3 6 -1 6 5 0 7 8 12 19 12
10 0 25 8 32 18 13 16 13 16 -5 2 -18 -14 -19 -13 -13 3 8 22 7 22 -22 -8z"/>
<path d="M4216 3451 c-4 -5 3 -7 14 -4 23 6 26 13 6 13 -8 0 -17 -4 -20 -9z"/>
<path d="M3230 3439 c0 -5 5 -7 10 -4 6 3 10 8 10 11 0 2 -4 4 -10 4 -5 0 -10
-5 -10 -11z"/>
<path d="M2825 3430 c-3 -5 -1 -10 4 -10 6 0 11 5 11 10 0 6 -2 10 -4 10 -3 0
-8 -4 -11 -10z"/>
<path d="M2998 3411 c-4 -24 -1 -27 16 -23 11 3 15 7 8 10 -18 6 -14 22 6 22
14 0 15 2 2 10 -23 15 -27 12 -32 -19z"/>
<path d="M3056 3421 c-18 -20 -20 -31 -7 -31 5 0 11 9 14 20 3 14 11 18 27 15
13 -2 20 -1 16 2 -13 14 -35 11 -50 -6z"/>
<path d="M4374 3419 c0 -10 4 -19 8 -19 4 0 8 6 8 14 0 8 -4 17 -8 20 -4 2 -8
-4 -8 -15z"/>
<path d="M2763 3423 c-7 -3 -13 -10 -13 -15 0 -6 3 -8 7 -5 3 4 12 2 20 -4 7
-6 13 -8 13 -3 0 17 -15 31 -27 27z"/>
<path d="M3958 3412 c-4 -15 -1 -18 14 -14 11 2 16 8 11 11 -4 3 -11 10 -14
14 -4 4 -9 -1 -11 -11z"/>
<path d="M4253 3405 c0 -14 5 -25 12 -25 8 0 11 8 8 20 -8 30 -20 33 -20 5z"/>
<path d="M4285 3420 c-3 -5 -1 -10 4 -10 6 0 11 5 11 10 0 6 -2 10 -4 10 -3 0
-8 -4 -11 -10z"/>
<path d="M3170 3416 c0 -2 8 -10 18 -17 15 -13 16 -12 3 4 -13 16 -21 21 -21
13z"/>
<path d="M4403 3399 c-2 -23 3 -25 10 -4 4 8 3 16 -1 19 -4 3 -9 -4 -9 -15z"/>
<path d="M3071 3403 c-1 -6 -4 -20 -7 -30 -5 -17 -5 -17 6 0 6 10 9 23 6 30
-3 9 -5 9 -5 0z"/>
<path d="M3095 3387 c5 -23 2 -30 -15 -34 -29 -8 -25 -21 6 -17 35 3 37 6 19
45 -15 31 -15 31 -10 6z"/>
<path d="M4177 3395 c-9 -23 -9 -23 11 -28 10 -3 7 -5 -10 -6 -20 -1 -26 -5
-22 -16 4 -11 -1 -15 -17 -15 -19 0 -21 -2 -9 -10 9 -5 19 -5 27 2 9 7 13 7
13 -1 0 -6 -3 -11 -7 -12 -18 -2 -46 -8 -60 -13 -12 -5 -10 -10 11 -27 20 -15
25 -27 21 -43 -5 -16 -4 -18 4 -6 6 8 8 24 5 35 -4 17 -2 16 17 -5 l21 -25
-16 27 c-16 27 -22 58 -9 45 3 -4 11 -1 17 7 6 7 25 18 43 24 l32 11 -1 -37
c-1 -20 -3 -31 -6 -24 -2 6 -8 12 -13 12 -6 0 -5 -8 1 -20 6 -11 15 -18 20
-15 6 3 7 -1 4 -9 -3 -9 -2 -16 4 -16 5 0 12 7 16 15 3 8 11 14 17 13 6 -2 14
4 16 12 4 12 3 12 -5 1 -6 -8 -12 -9 -16 -3 -3 6 -2 13 4 17 13 8 13 25 -1 25
-5 0 -8 -4 -4 -9 3 -5 1 -12 -5 -16 -6 -4 -7 -12 -4 -18 4 -7 3 -8 -2 -4 -13
12 -12 57 1 57 5 0 2 7 -7 14 -10 7 -18 16 -18 20 0 14 36 0 47 -19 7 -11 12
-15 12 -10 1 22 -20 40 -46 40 -17 1 -28 6 -28 15 0 7 -6 15 -12 18 -18 5 -16
-13 2 -32 19 -18 19 -27 1 -20 -8 3 -17 1 -21 -5 -8 -14 -35 -14 -35 -1 0 6 6
10 14 10 22 0 26 13 12 39 -11 20 -14 21 -19 6z m-37 -110 c0 -8 -4 -15 -10
-15 -5 0 -7 7 -4 15 4 8 8 15 10 15 2 0 4 -7 4 -15z"/>
<path d="M4290 3391 c0 -6 4 -13 10 -16 6 -3 7 1 4 9 -7 18 -14 21 -14 7z"/>
<path d="M3120 3381 c0 -10 19 -25 25 -20 1 2 -3 10 -11 17 -8 7 -14 8 -14 3z"/>
<path d="M3165 3370 c-4 -6 -4 -14 -1 -17 3 -4 6 -1 6 5 0 15 36 16 43 2 3 -6
4 -5 3 2 -3 17 -42 23 -51 8z"/>
<path d="M4465 3360 c-4 -6 -11 -7 -17 -4 -6 4 -8 2 -5 -4 4 -5 16 -8 27 -5
11 3 17 9 14 14 -7 12 -11 11 -19 -1z"/>
<path d="M2955 3340 c3 -5 8 -10 11 -10 2 0 4 5 4 10 0 6 -5 10 -11 10 -5 0
-7 -4 -4 -10z"/>
<path d="M3160 3315 c-9 -10 -9 -15 -1 -15 6 0 11 5 11 11 0 5 5 7 12 3 7 -4
8 -3 4 4 -9 15 -11 15 -26 -3z"/>
<path d="M4473 3323 c12 -8 8 -23 -7 -23 -8 0 -17 -7 -20 -16 -5 -14 -4 -15 8
-5 11 9 15 8 20 -4 8 -22 32 -18 32 6 0 19 -1 19 -13 3 -12 -16 -13 -16 -13
-1 0 9 8 21 18 26 9 6 12 11 5 11 -6 0 -17 2 -25 3 -7 2 -10 2 -5 0z"/>
<path d="M4542 3295 c0 -16 2 -22 5 -12 2 9 2 23 0 30 -3 6 -5 -1 -5 -18z"/>
<path d="M2923 3295 c-3 -9 -3 -18 -1 -21 3 -3 8 4 11 16 6 23 -1 27 -10 5z"/>
<path d="M3878 3303 c7 -3 16 -2 19 1 4 3 -2 6 -13 5 -11 0 -14 -3 -6 -6z"/>
<path d="M4190 3300 c0 -5 5 -10 11 -10 5 0 7 5 4 10 -3 6 -8 10 -11 10 -2 0
-4 -4 -4 -10z"/>
<path d="M4562 3290 c0 -14 2 -19 5 -12 2 6 2 18 0 25 -3 6 -5 1 -5 -13z"/>
<path d="M4582 3285 c0 -16 2 -22 5 -12 2 9 2 23 0 30 -3 6 -5 -1 -5 -18z"/>
<path d="M2840 3283 c5 -2 8 -8 5 -13 -2 -4 4 -15 15 -25 11 -10 20 -13 20 -8
0 6 -7 13 -15 17 -8 3 -14 11 -13 17 2 6 -3 13 -10 15 -7 1 -8 0 -2 -3z"/>
<path d="M3088 3283 c6 -2 18 -2 25 0 6 3 1 5 -13 5 -14 0 -19 -2 -12 -5z"/>
<path d="M4182 3256 c6 -14 15 -26 20 -26 10 0 -7 36 -22 45 -6 4 -5 -5 2 -19z"/>
<path d="M3930 3260 c-12 -8 -11 -10 8 -10 12 0 22 5 22 10 0 13 -11 13 -30 0z"/>
<path d="M2956 3223 c-6 -14 -5 -15 5 -6 7 7 10 15 7 18 -3 3 -9 -2 -12 -12z"/>
<path d="M4080 3211 c0 -5 7 -15 17 -22 15 -13 15 -12 4 9 -12 23 -21 28 -21
13z"/>
<path d="M4155 3213 c4 -8 0 -13 -9 -13 -8 0 -18 -5 -22 -12 -4 -7 -3 -8 4 -4
7 4 12 2 12 -3 0 -6 5 -11 11 -11 5 0 7 5 4 10 -3 6 -2 10 4 10 5 0 12 -6 14
-12 3 -7 6 -8 6 -2 1 5 -6 19 -15 30 -8 10 -13 13 -9 7z"/>
<path d="M4980 3715 c0 -5 5 -17 10 -25 5 -8 10 -10 10 -5 0 6 -5 17 -10 25
-5 8 -10 11 -10 5z"/>
<path d="M4931 3674 c0 -11 3 -14 6 -6 3 7 2 16 -1 19 -3 4 -6 -2 -5 -13z"/>
<path d="M4855 3640 c-3 -6 1 -7 9 -4 18 7 21 14 7 14 -6 0 -13 -4 -16 -10z"/>
<path d="M2190 3880 c0 -5 7 -7 15 -4 8 4 15 8 15 10 0 2 -7 4 -15 4 -8 0 -15
-4 -15 -10z"/>
<path d="M2253 3853 c-10 -10 -13 -14 -7 -10 7 5 22 4 32 -2 15 -8 23 -7 31 3
9 10 8 15 -5 20 -24 9 -30 8 -51 -11z"/>
<path d="M2339 3729 c-8 -5 -12 -9 -9 -10 44 -7 61 -6 58 3 -5 15 -32 18 -49
7z"/>
<path d="M2704 3699 c-3 -5 2 -6 10 -3 11 4 16 0 17 -12 0 -11 3 -14 6 -6 2 6
8 10 13 7 4 -3 10 1 13 8 5 14 -50 20 -59 6z"/>
<path d="M2655 3680 c3 -5 8 -10 11 -10 2 0 4 5 4 10 0 6 -5 10 -11 10 -5 0
-7 -4 -4 -10z"/>
<path d="M2717 3633 c-4 -3 -7 -11 -7 -17 0 -6 5 -5 12 2 6 6 9 14 7 17 -3 3
-9 2 -12 -2z"/>
<path d="M2696 3591 c-4 -7 -5 -15 -2 -18 9 -9 19 4 14 18 -4 11 -6 11 -12 0z"/>
<path d="M3530 3199 c0 -5 5 -7 10 -4 6 3 10 8 10 11 0 2 -4 4 -10 4 -5 0 -10
-5 -10 -11z"/>
</g>
</svg>
